<svg xmlns="http://www.w3.org/2000/svg" xmlns:xlink="http://www.w3.org/1999/xlink" xmlns:inkscape="http://www.inkscape.org/namespaces/inkscape" version="1.1" width="2161.92" height="800.76" viewBox="0 0 2161.92 800.76">
<defs>
<clipPath id="clip_1">
<path transform="matrix(1,0,0,-1,0,800.76)" d="M0 .00018311H2161.92V800.7602H0Z" clip-rule="evenodd"/>
</clipPath>
<clipPath id="clip_2">
<path transform="matrix(1,0,0,-1,0,800.76)" d="M-.000000477 .00024414H2161.92V800.76028H-.000000477Z" clip-rule="evenodd"/>
</clipPath>
<clipPath id="clip_3">
<path transform="matrix(1,0,0,-1,0,800.76)" d="M-.000000477 .00024414H2161.92V800.76028H-.000000477Z" clip-rule="evenodd"/>
</clipPath>
<clipPath id="clip_4">
<path transform="matrix(1,0,0,-1,0,800.76)" d="M0 .00024414H2161.92V800.76028H0Z" clip-rule="evenodd"/>
</clipPath>
<clipPath id="clip_5">
<path transform="matrix(1,0,0,-1,0,800.76)" d="M0 .00024414H2161.92V800.76028H0Z" clip-rule="evenodd"/>
</clipPath>
<clipPath id="clip_6">
<path transform="matrix(1,0,0,-1,0,800.76)" d="M0 .00024414H2161.92V800.76028H0Z" clip-rule="evenodd"/>
</clipPath>
<clipPath id="clip_7">
<path transform="matrix(1,0,0,-1,0,800.76)" d="M0 .00024414H2161.92V800.76028H0Z" clip-rule="evenodd"/>
</clipPath>
<clipPath id="clip_8">
<path transform="matrix(1,0,0,-1,0,800.76)" d="M0 .00024414H2161.92V800.76028H0Z" clip-rule="evenodd"/>
</clipPath>
<clipPath id="clip_9">
<path transform="matrix(1,0,0,-1,0,800.76)" d="M0 .00024414H2161.92V800.76028H0Z" clip-rule="evenodd"/>
</clipPath>
<clipPath id="clip_10">
<path transform="matrix(1,0,0,-1,0,800.76)" d="M0 .00024414H2161.92V800.76028H0Z" clip-rule="evenodd"/>
</clipPath>
<clipPath id="clip_11">
<path transform="matrix(1,0,0,-1,0,800.76)" d="M0 .00024414H2161.92V800.76028H0Z" clip-rule="evenodd"/>
</clipPath>
<clipPath id="clip_12">
<path transform="matrix(1,0,0,-1,0,800.76)" d="M0 .00018311H2161.92V800.7602H0Z" clip-rule="evenodd"/>
</clipPath>
<clipPath id="clip_13">
<path transform="matrix(1,0,0,-1,0,800.76)" d="M.000032215 0H2161.92V800.76H.000032215Z" clip-rule="evenodd"/>
</clipPath>
<clipPath id="clip_14">
<path transform="matrix(1,0,0,-1,0,800.76)" d="M.000032215 0H2161.92V800.76H.000032215Z" clip-rule="evenodd"/>
</clipPath>
<clipPath id="clip_15">
<path transform="matrix(1,0,0,-1,0,800.76)" d="M.000032215 0H2161.92V800.76H.000032215Z" clip-rule="evenodd"/>
</clipPath>
<clipPath id="clip_16">
<path transform="matrix(1,0,0,-1,0,800.76)" d="M.000032215 0H2161.92V800.76H.000032215Z" clip-rule="evenodd"/>
</clipPath>
<clipPath id="clip_17">
<path transform="matrix(1,0,0,-1,0,800.76)" d="M.000032215 0H2161.92V800.76H.000032215Z" clip-rule="evenodd"/>
</clipPath>
<clipPath id="clip_18">
<path transform="matrix(1,0,0,-1,0,800.76)" d="M.000032215 0H2161.92V800.76H.000032215Z" clip-rule="evenodd"/>
</clipPath>
<clipPath id="clip_19">
<path transform="matrix(1,0,0,-1,0,800.76)" d="M.000032215 0H2161.92V800.76H.000032215Z" clip-rule="evenodd"/>
</clipPath>
<clipPath id="clip_20">
<path transform="matrix(1,0,0,-1,0,800.76)" d="M.000032215 0H2161.92V800.76H.000032215Z" clip-rule="evenodd"/>
</clipPath>
<clipPath id="clip_21">
<path transform="matrix(1,0,0,-1,0,800.76)" d="M.000032215 0H2161.92V800.76H.000032215Z" clip-rule="evenodd"/>
</clipPath>
<clipPath id="clip_22">
<path transform="matrix(1,0,0,-1,0,800.76)" d="M.000032215 0H2161.92V800.76H.000032215Z" clip-rule="evenodd"/>
</clipPath>
<clipPath id="clip_23">
<path transform="matrix(1,0,0,-1,0,800.76)" d="M.000032215 0H2161.92V800.76H.000032215Z" clip-rule="evenodd"/>
</clipPath>
<clipPath id="clip_24">
<path transform="matrix(1,0,0,-1,0,800.76)" d="M-.000015259 .00018311H2161.92V800.7602H-.000015259Z" clip-rule="evenodd"/>
</clipPath>
<clipPath id="clip_25">
<path transform="matrix(1,0,0,-1,0,800.76)" d="M-.000015259 .00030518H2161.92V800.7603H-.000015259Z" clip-rule="evenodd"/>
</clipPath>
<clipPath id="clip_26">
<path transform="matrix(1,0,0,-1,0,800.76)" d="M-.000015259 .00030518H2161.92V800.7603H-.000015259Z" clip-rule="evenodd"/>
</clipPath>
<clipPath id="clip_27">
<path transform="matrix(1,0,0,-1,0,800.76)" d="M-.000015259 .00030518H2161.92V800.7603H-.000015259Z" clip-rule="evenodd"/>
</clipPath>
<clipPath id="clip_28">
<path transform="matrix(1,0,0,-1,0,800.76)" d="M-.000015259 .00030518H2161.92V800.7603H-.000015259Z" clip-rule="evenodd"/>
</clipPath>
<clipPath id="clip_29">
<path transform="matrix(1,0,0,-1,0,800.76)" d="M.000032215 0H2161.92V800.76H.000032215Z" clip-rule="evenodd"/>
</clipPath>
<clipPath id="clip_30">
<path transform="matrix(1,0,0,-1,0,800.76)" d="M-.000030518 .00030518H2161.92V800.7603H-.000030518Z" clip-rule="evenodd"/>
</clipPath>
<clipPath id="clip_31">
<path transform="matrix(1,0,0,-1,0,800.76)" d="M-.000030518 .00030518H2161.92V800.7603H-.000030518Z" clip-rule="evenodd"/>
</clipPath>
<clipPath id="clip_32">
<path transform="matrix(1,0,0,-1,0,800.76)" d="M-.000030518 .00030518H2161.92V800.7603H-.000030518Z" clip-rule="evenodd"/>
</clipPath>
<clipPath id="clip_33">
<path transform="matrix(1,0,0,-1,0,800.76)" d="M-.000030518 .00030518H2161.92V800.7603H-.000030518Z" clip-rule="evenodd"/>
</clipPath>
<clipPath id="clip_34">
<path transform="matrix(1,0,0,-1,0,800.76)" d="M.000032215 0H2161.92V800.76H.000032215Z" clip-rule="evenodd"/>
</clipPath>
<clipPath id="clip_35">
<path transform="matrix(1,0,0,-1,0,800.76)" d="M0 .00036621H2161.92V800.7604H0Z" clip-rule="evenodd"/>
</clipPath>
<clipPath id="clip_36">
<path transform="matrix(1,0,0,-1,0,800.76)" d="M0 .00018311H2161.92V800.7602H0Z" clip-rule="evenodd"/>
</clipPath>
<clipPath id="clip_37">
<path transform="matrix(1,0,0,-1,0,800.76)" d="M-.00012207 .00036621H2161.92V800.7604H-.00012207Z" clip-rule="evenodd"/>
</clipPath>
<clipPath id="clip_38">
<path transform="matrix(1,0,0,-1,0,800.76)" d="M0 .00018311H2161.92V800.7602H0Z" clip-rule="evenodd"/>
</clipPath>
<clipPath id="clip_39">
<path transform="matrix(1,0,0,-1,0,800.76)" d="M0 .00018311H2161.92V800.7602H0Z" clip-rule="evenodd"/>
</clipPath>
<clipPath id="clip_40">
<path transform="matrix(1,0,0,-1,0,800.76)" d="M.000032215 0H2161.92V800.76H.000032215Z" clip-rule="evenodd"/>
</clipPath>
<clipPath id="clip_41">
<path transform="matrix(1,0,0,-1,0,800.76)" d="M0 .00018311H2161.92V800.7602H0Z" clip-rule="evenodd"/>
</clipPath>
<clipPath id="clip_42">
<path transform="matrix(1,0,0,-1,0,800.76)" d="M0 .00018311H2161.92V800.7602H0Z" clip-rule="evenodd"/>
</clipPath>
<clipPath id="clip_43">
<path transform="matrix(1,0,0,-1,0,800.76)" d="M.000032215 0H2161.92V800.76H.000032215Z" clip-rule="evenodd"/>
</clipPath>
<clipPath id="clip_44">
<path transform="matrix(1,0,0,-1,0,800.76)" d="M0 .00024414H2161.92V800.76028H0Z" clip-rule="evenodd"/>
</clipPath>
<clipPath id="clip_45">
<path transform="matrix(1,0,0,-1,0,800.76)" d="M0 .00024414H2161.92V800.76028H0Z" clip-rule="evenodd"/>
</clipPath>
<clipPath id="clip_46">
<path transform="matrix(1,0,0,-1,0,800.76)" d="M.000032215 0H2161.92V800.76H.000032215Z" clip-rule="evenodd"/>
</clipPath>
<clipPath id="clip_47">
<path transform="matrix(1,0,0,-1,0,800.76)" d="M-.00012207 0H2161.92V800.76H-.00012207Z" clip-rule="evenodd"/>
</clipPath>
<clipPath id="clip_48">
<path transform="matrix(1,0,0,-1,0,800.76)" d="M0 .00024414H2161.92V800.76028H0Z" clip-rule="evenodd"/>
</clipPath>
<clipPath id="clip_49">
<path transform="matrix(1,0,0,-1,0,800.76)" d="M-.00012207 0H2161.92V800.76H-.00012207Z" clip-rule="evenodd"/>
</clipPath>
<clipPath id="clip_50">
<path transform="matrix(1,0,0,-1,0,800.76)" d="M.000032215 0H2161.92V800.76H.000032215Z" clip-rule="evenodd"/>
</clipPath>
<clipPath id="clip_51">
<path transform="matrix(1,0,0,-1,0,800.76)" d="M.000032215 0H2161.92V800.76H.000032215Z" clip-rule="evenodd"/>
</clipPath>
<clipPath id="clip_52">
<path transform="matrix(1,0,0,-1,0,800.76)" d="M.000032215 0H2161.92V800.76H.000032215Z" clip-rule="evenodd"/>
</clipPath>
<clipPath id="clip_53">
<path transform="matrix(1,0,0,-1,0,800.76)" d="M.000032215 0H2161.92V800.76H.000032215Z" clip-rule="evenodd"/>
</clipPath>
<clipPath id="clip_54">
<path transform="matrix(1,0,0,-1,0,800.76)" d="M.000032215 0H2161.92V800.76H.000032215Z" clip-rule="evenodd"/>
</clipPath>
<clipPath id="clip_55">
<path transform="matrix(1,0,0,-1,0,800.76)" d="M-.00012207 .00024414H2161.92V800.76028H-.00012207Z" clip-rule="evenodd"/>
</clipPath>
<clipPath id="clip_56">
<path transform="matrix(1,0,0,-1,0,800.76)" d="M-.00012207 .00018311H2161.92V800.7602H-.00012207Z" clip-rule="evenodd"/>
</clipPath>
<clipPath id="clip_57">
<path transform="matrix(1,0,0,-1,0,800.76)" d="M.00012207 .00018311H2161.92V800.7602H.00012207Z" clip-rule="evenodd"/>
</clipPath>
<clipPath id="clip_58">
<path transform="matrix(1,0,0,-1,0,800.76)" d="M.00012207 .00018311H2161.92V800.7602H.00012207Z" clip-rule="evenodd"/>
</clipPath>
<clipPath id="clip_59">
<path transform="matrix(1,0,0,-1,0,800.76)" d="M.000032215 0H2161.92V800.76H.000032215Z" clip-rule="evenodd"/>
</clipPath>
<clipPath id="clip_60">
<path transform="matrix(1,0,0,-1,0,800.76)" d="M0 .00036621H2161.92V800.7604H0Z" clip-rule="evenodd"/>
</clipPath>
<clipPath id="clip_61">
<path transform="matrix(1,0,0,-1,0,800.76)" d="M.00012207 .00018311H2161.92V800.7602H.00012207Z" clip-rule="evenodd"/>
</clipPath>
<clipPath id="clip_62">
<path transform="matrix(1,0,0,-1,0,800.76)" d="M.00012207 .00018311H2161.92V800.7602H.00012207Z" clip-rule="evenodd"/>
</clipPath>
<clipPath id="clip_63">
<path transform="matrix(1,0,0,-1,0,800.76)" d="M.000032215 0H2161.92V800.76H.000032215Z" clip-rule="evenodd"/>
</clipPath>
<clipPath id="clip_64">
<path transform="matrix(1,0,0,-1,0,800.76)" d="M0 .00018311H2161.92V800.7602H0Z" clip-rule="evenodd"/>
</clipPath>
<clipPath id="clip_65">
<path transform="matrix(1,0,0,-1,0,800.76)" d="M.00012207 .00018311H2161.92V800.7602H.00012207Z" clip-rule="evenodd"/>
</clipPath>
<clipPath id="clip_66">
<path transform="matrix(1,0,0,-1,0,800.76)" d="M.00012207 .00018311H2161.92V800.7602H.00012207Z" clip-rule="evenodd"/>
</clipPath>
<clipPath id="clip_67">
<path transform="matrix(1,0,0,-1,0,800.76)" d="M.000032215 0H2161.92V800.76H.000032215Z" clip-rule="evenodd"/>
</clipPath>
<clipPath id="clip_68">
<path transform="matrix(1,0,0,-1,0,800.76)" d="M0 .00018311H2161.92V800.7602H0Z" clip-rule="evenodd"/>
</clipPath>
<clipPath id="clip_69">
<path transform="matrix(1,0,0,-1,0,800.76)" d="M0 .00036621H2161.92V800.7604H0Z" clip-rule="evenodd"/>
</clipPath>
<clipPath id="clip_70">
<path transform="matrix(1,0,0,-1,0,800.76)" d="M-.00012207 .00018311H2161.92V800.7602H-.00012207Z" clip-rule="evenodd"/>
</clipPath>
<clipPath id="clip_71">
<path transform="matrix(1,0,0,-1,0,800.76)" d="M-.00012207 .00018311H2161.92V800.7602H-.00012207Z" clip-rule="evenodd"/>
</clipPath>
<clipPath id="clip_72">
<path transform="matrix(1,0,0,-1,0,800.76)" d="M.000032215 0H2161.92V800.76H.000032215Z" clip-rule="evenodd"/>
</clipPath>
<clipPath id="clip_73">
<path transform="matrix(1,0,0,-1,0,800.76)" d="M0 .00018311H2161.92V800.7602H0Z" clip-rule="evenodd"/>
</clipPath>
<clipPath id="clip_74">
<path transform="matrix(1,0,0,-1,0,800.76)" d="M0 .00018311H2161.92V800.7602H0Z" clip-rule="evenodd"/>
</clipPath>
<clipPath id="clip_75">
<path transform="matrix(1,0,0,-1,0,800.76)" d="M0 .00018311H2161.92V800.7602H0Z" clip-rule="evenodd"/>
</clipPath>
<clipPath id="clip_76">
<path transform="matrix(1,0,0,-1,0,800.76)" d="M0 .00018311H2161.92V800.7602H0Z" clip-rule="evenodd"/>
</clipPath>
<clipPath id="clip_77">
<path transform="matrix(1,0,0,-1,0,800.76)" d="M0 .00018311H2161.92V800.7602H0Z" clip-rule="evenodd"/>
</clipPath>
<clipPath id="clip_78">
<path transform="matrix(1,0,0,-1,0,800.76)" d="M.000032215 0H2161.92V800.76H.000032215Z" clip-rule="evenodd"/>
</clipPath>
<clipPath id="clip_79">
<path transform="matrix(1,0,0,-1,0,800.76)" d="M.000032215 0H2161.92V800.76H.000032215Z" clip-rule="evenodd"/>
</clipPath>
<clipPath id="clip_80">
<path transform="matrix(1,0,0,-1,0,800.76)" d="M.000032215 0H2161.92V800.76H.000032215Z" clip-rule="evenodd"/>
</clipPath>
<clipPath id="clip_81">
<path transform="matrix(1,0,0,-1,0,800.76)" d="M0 .00024414H2161.92V800.76028H0Z" clip-rule="evenodd"/>
</clipPath>
<clipPath id="clip_82">
<path transform="matrix(1,0,0,-1,0,800.76)" d="M.000032215 0H2161.92V800.76H.000032215Z" clip-rule="evenodd"/>
</clipPath>
<clipPath id="clip_83">
<path transform="matrix(1,0,0,-1,0,800.76)" d="M.000032215 0H2161.92V800.76H.000032215Z" clip-rule="evenodd"/>
</clipPath>
<clipPath id="clip_84">
<path transform="matrix(1,0,0,-1,0,800.76)" d="M.000032215 0H2161.92V800.76H.000032215Z" clip-rule="evenodd"/>
</clipPath>
<clipPath id="clip_85">
<path transform="matrix(1,0,0,-1,0,800.76)" d="M0 .00018311H2161.92V800.7602H0Z" clip-rule="evenodd"/>
</clipPath>
<clipPath id="clip_86">
<path transform="matrix(1,0,0,-1,0,800.76)" d="M.000032215 0H2161.92V800.76H.000032215Z" clip-rule="evenodd"/>
</clipPath>
<clipPath id="clip_87">
<path transform="matrix(1,0,0,-1,0,800.76)" d="M.000032215 0H2161.92V800.76H.000032215Z" clip-rule="evenodd"/>
</clipPath>
<clipPath id="clip_88">
<path transform="matrix(1,0,0,-1,0,800.76)" d="M.000032215 0H2161.92V800.76H.000032215Z" clip-rule="evenodd"/>
</clipPath>
<clipPath id="clip_89">
<path transform="matrix(1,0,0,-1,0,800.76)" d="M0 .00018311H2161.92V800.7602H0Z" clip-rule="evenodd"/>
</clipPath>
<clipPath id="clip_90">
<path transform="matrix(1,0,0,-1,0,800.76)" d="M-.00012207 .00018311H2161.92V800.7602H-.00012207Z" clip-rule="evenodd"/>
</clipPath>
<clipPath id="clip_91">
<path transform="matrix(1,0,0,-1,0,800.76)" d="M-.00024414 0H2161.9197V800.76H-.00024414Z" clip-rule="evenodd"/>
</clipPath>
<clipPath id="clip_92">
<path transform="matrix(1,0,0,-1,0,800.76)" d="M-.000030518 .00018311H2161.92V800.7602H-.000030518Z" clip-rule="evenodd"/>
</clipPath>
<clipPath id="clip_93">
<path transform="matrix(1,0,0,-1,0,800.76)" d="M-.000030518 .00018311H2161.92V800.7602H-.000030518Z" clip-rule="evenodd"/>
</clipPath>
<clipPath id="clip_94">
<path transform="matrix(1,0,0,-1,0,800.76)" d="M.000032215 0H2161.92V800.76H.000032215Z" clip-rule="evenodd"/>
</clipPath>
<clipPath id="clip_95">
<path transform="matrix(1,0,0,-1,0,800.76)" d="M.000032215 0H2161.92V800.76H.000032215Z" clip-rule="evenodd"/>
</clipPath>
<clipPath id="clip_96">
<path transform="matrix(1,0,0,-1,0,800.76)" d="M.000032215 0H2161.92V800.76H.000032215Z" clip-rule="evenodd"/>
</clipPath>
<clipPath id="clip_97">
<path transform="matrix(1,0,0,-1,0,800.76)" d="M.000032215 0H2161.92V800.76H.000032215Z" clip-rule="evenodd"/>
</clipPath>
<clipPath id="clip_98">
<path transform="matrix(1,0,0,-1,0,800.76)" d="M0 .00036621H2161.92V800.7604H0Z" clip-rule="evenodd"/>
</clipPath>
<clipPath id="clip_99">
<path transform="matrix(1,0,0,-1,0,800.76)" d="M0 .00036621H2161.92V800.7604H0Z" clip-rule="evenodd"/>
</clipPath>
<clipPath id="clip_100">
<path transform="matrix(1,0,0,-1,0,800.76)" d="M0 .00036621H2161.92V800.7604H0Z" clip-rule="evenodd"/>
</clipPath>
<clipPath id="clip_101">
<path transform="matrix(1,0,0,-1,0,800.76)" d="M0 .00036621H2161.92V800.7604H0Z" clip-rule="evenodd"/>
</clipPath>
<clipPath id="clip_102">
<path transform="matrix(1,0,0,-1,0,800.76)" d="M-.000030518 .00018311H2161.92V800.7602H-.000030518Z" clip-rule="evenodd"/>
</clipPath>
<clipPath id="clip_103">
<path transform="matrix(1,0,0,-1,0,800.76)" d="M-.000030518 .00018311H2161.92V800.7602H-.000030518Z" clip-rule="evenodd"/>
</clipPath>
<clipPath id="clip_104">
<path transform="matrix(1,0,0,-1,0,800.76)" d="M-.000030518 .00018311H2161.92V800.7602H-.000030518Z" clip-rule="evenodd"/>
</clipPath>
<clipPath id="clip_105">
<path transform="matrix(1,0,0,-1,0,800.76)" d="M-.000030518 .00018311H2161.92V800.7602H-.000030518Z" clip-rule="evenodd"/>
</clipPath>
<clipPath id="clip_106">
<path transform="matrix(1,0,0,-1,0,800.76)" d="M-.000061035 .00036621H2161.92V800.7604H-.000061035Z" clip-rule="evenodd"/>
</clipPath>
<clipPath id="clip_107">
<path transform="matrix(1,0,0,-1,0,800.76)" d="M-.000061035 .00018311H2161.92V800.7602H-.000061035Z" clip-rule="evenodd"/>
</clipPath>
<clipPath id="clip_108">
<path transform="matrix(1,0,0,-1,0,800.76)" d="M.000032215 0H2161.92V800.76H.000032215Z" clip-rule="evenodd"/>
</clipPath>
<clipPath id="clip_109">
<path transform="matrix(1,0,0,-1,0,800.76)" d="M.000032215 0H2161.92V800.76H.000032215Z" clip-rule="evenodd"/>
</clipPath>
<clipPath id="clip_110">
<path transform="matrix(1,0,0,-1,0,800.76)" d="M0 .00036621H2161.92V800.7604H0Z" clip-rule="evenodd"/>
</clipPath>
<clipPath id="clip_111">
<path transform="matrix(1,0,0,-1,0,800.76)" d="M0 .00018311H2161.92V800.7602H0Z" clip-rule="evenodd"/>
</clipPath>
<clipPath id="clip_112">
<path transform="matrix(1,0,0,-1,0,800.76)" d="M0 .00018311H2161.92V800.7602H0Z" clip-rule="evenodd"/>
</clipPath>
<clipPath id="clip_113">
<path transform="matrix(1,0,0,-1,0,800.76)" d="M0 .00018311H2161.92V800.7602H0Z" clip-rule="evenodd"/>
</clipPath>
<clipPath id="clip_114">
<path transform="matrix(1,0,0,-1,0,800.76)" d="M0 .00018311H2161.92V800.7602H0Z" clip-rule="evenodd"/>
</clipPath>
<clipPath id="clip_115">
<path transform="matrix(1,0,0,-1,0,800.76)" d="M0 .00018311H2161.92V800.7602H0Z" clip-rule="evenodd"/>
</clipPath>
<clipPath id="clip_116">
<path transform="matrix(1,0,0,-1,0,800.76)" d="M0 .00036621H2161.92V800.7604H0Z" clip-rule="evenodd"/>
</clipPath>
<clipPath id="clip_117">
<path transform="matrix(1,0,0,-1,0,800.76)" d="M0 .00036621H2161.92V800.7604H0Z" clip-rule="evenodd"/>
</clipPath>
<clipPath id="clip_118">
<path transform="matrix(1,0,0,-1,0,800.76)" d="M0 .00036621H2161.92V800.7604H0Z" clip-rule="evenodd"/>
</clipPath>
<clipPath id="clip_119">
<path transform="matrix(1,0,0,-1,0,800.76)" d="M0 .00036621H2161.92V800.7604H0Z" clip-rule="evenodd"/>
</clipPath>
<clipPath id="clip_120">
<path transform="matrix(1,0,0,-1,0,800.76)" d="M-.00012207 0H2161.92V800.76H-.00012207Z" clip-rule="evenodd"/>
</clipPath>
<clipPath id="clip_121">
<path transform="matrix(1,0,0,-1,0,800.76)" d="M0 .00024414H2161.92V800.76028H0Z" clip-rule="evenodd"/>
</clipPath>
<clipPath id="clip_122">
<path transform="matrix(1,0,0,-1,0,800.76)" d="M0 .00012207H2161.92V800.76016H0Z" clip-rule="evenodd"/>
</clipPath>
<clipPath id="clip_123">
<path transform="matrix(1,0,0,-1,0,800.76)" d="M0 .00018311H2161.92V800.7602H0Z" clip-rule="evenodd"/>
</clipPath>
<clipPath id="clip_124">
<path transform="matrix(1,0,0,-1,0,800.76)" d="M0 .00024414H2161.92V800.76028H0Z" clip-rule="evenodd"/>
</clipPath>
<clipPath id="clip_125">
<path transform="matrix(1,0,0,-1,0,800.76)" d="M-.00012207 .00024414H2161.92V800.76028H-.00012207Z" clip-rule="evenodd"/>
</clipPath>
<clipPath id="clip_126">
<path transform="matrix(1,0,0,-1,0,800.76)" d="M-.00012207 .00024414H2161.92V800.76028H-.00012207Z" clip-rule="evenodd"/>
</clipPath>
<clipPath id="clip_127">
<path transform="matrix(1,0,0,-1,0,800.76)" d="M-.00012207 .00024414H2161.92V800.76028H-.00012207Z" clip-rule="evenodd"/>
</clipPath>
<clipPath id="clip_128">
<path transform="matrix(1,0,0,-1,0,800.76)" d="M-.00012207 .00024414H2161.92V800.76028H-.00012207Z" clip-rule="evenodd"/>
</clipPath>
<clipPath id="clip_129">
<path transform="matrix(1,0,0,-1,0,800.76)" d="M0 .00024414H2161.92V800.76028H0Z" clip-rule="evenodd"/>
</clipPath>
<clipPath id="clip_130">
<path transform="matrix(1,0,0,-1,0,800.76)" d="M0 .00024414H2161.92V800.76028H0Z" clip-rule="evenodd"/>
</clipPath>
<clipPath id="clip_131">
<path transform="matrix(1,0,0,-1,0,800.76)" d="M0 .00024414H2161.92V800.76028H0Z" clip-rule="evenodd"/>
</clipPath>
<clipPath id="clip_132">
<path transform="matrix(1,0,0,-1,0,800.76)" d="M0 .00024414H2161.92V800.76028H0Z" clip-rule="evenodd"/>
</clipPath>
<clipPath id="clip_133">
<path transform="matrix(1,0,0,-1,0,800.76)" d="M0 .00024414H2161.92V800.76028H0Z" clip-rule="evenodd"/>
</clipPath>
<clipPath id="clip_134">
<path transform="matrix(1,0,0,-1,0,800.76)" d="M0 .00024414H2161.92V800.76028H0Z" clip-rule="evenodd"/>
</clipPath>
<clipPath id="clip_135">
<path transform="matrix(1,0,0,-1,0,800.76)" d="M0 .00024414H2161.92V800.76028H0Z" clip-rule="evenodd"/>
</clipPath>
<clipPath id="clip_136">
<path transform="matrix(1,0,0,-1,0,800.76)" d="M0 .00024414H2161.92V800.76028H0Z" clip-rule="evenodd"/>
</clipPath>
<clipPath id="clip_137">
<path transform="matrix(1,0,0,-1,0,800.76)" d="M.000032215 0H2161.92V800.76H.000032215Z" clip-rule="evenodd"/>
</clipPath>
<clipPath id="clip_138">
<path transform="matrix(1,0,0,-1,0,800.76)" d="M.000032215 0H2161.92V800.76H.000032215Z" clip-rule="evenodd"/>
</clipPath>
<clipPath id="clip_139">
<path transform="matrix(1,0,0,-1,0,800.76)" d="M.000032215 0H2161.92V800.76H.000032215Z" clip-rule="evenodd"/>
</clipPath>
<clipPath id="clip_140">
<path transform="matrix(1,0,0,-1,0,800.76)" d="M0 .00018311H2161.92V800.7602H0Z" clip-rule="evenodd"/>
</clipPath>
<clipPath id="clip_141">
<path transform="matrix(1,0,0,-1,0,800.76)" d="M0 .00018311H2161.92V800.7602H0Z" clip-rule="evenodd"/>
</clipPath>
<clipPath id="clip_142">
<path transform="matrix(1,0,0,-1,0,800.76)" d="M0 .00018311H2161.92V800.7602H0Z" clip-rule="evenodd"/>
</clipPath>
<clipPath id="clip_143">
<path transform="matrix(1,0,0,-1,0,800.76)" d="M0 .00018311H2161.92V800.7602H0Z" clip-rule="evenodd"/>
</clipPath>
<clipPath id="clip_144">
<path transform="matrix(1,0,0,-1,0,800.76)" d="M0 .00018311H2161.92V800.7602H0Z" clip-rule="evenodd"/>
</clipPath>
<clipPath id="clip_145">
<path transform="matrix(1,0,0,-1,0,800.76)" d="M0 .00018311H2161.92V800.7602H0Z" clip-rule="evenodd"/>
</clipPath>
<clipPath id="clip_146">
<path transform="matrix(1,0,0,-1,0,800.76)" d="M0 .00018311H2161.92V800.7602H0Z" clip-rule="evenodd"/>
</clipPath>
<clipPath id="clip_147">
<path transform="matrix(1,0,0,-1,0,800.76)" d="M0 .00018311H2161.92V800.7602H0Z" clip-rule="evenodd"/>
</clipPath>
<clipPath id="clip_148">
<path transform="matrix(1,0,0,-1,0,800.76)" d="M0 .00012207H2161.92V800.76016H0Z" clip-rule="evenodd"/>
</clipPath>
<clipPath id="clip_149">
<path transform="matrix(1,0,0,-1,0,800.76)" d="M0 .00012207H2161.92V800.76016H0Z" clip-rule="evenodd"/>
</clipPath>
<clipPath id="clip_150">
<path transform="matrix(1,0,0,-1,0,800.76)" d="M0 .00012207H2161.92V800.76016H0Z" clip-rule="evenodd"/>
</clipPath>
<clipPath id="clip_151">
<path transform="matrix(1,0,0,-1,0,800.76)" d="M0 .00012207H2161.92V800.76016H0Z" clip-rule="evenodd"/>
</clipPath>
<clipPath id="clip_152">
<path transform="matrix(1,0,0,-1,0,800.76)" d="M-.00012207 .00018311H2161.92V800.7602H-.00012207Z" clip-rule="evenodd"/>
</clipPath>
<clipPath id="clip_153">
<path transform="matrix(1,0,0,-1,0,800.76)" d="M-.00012207 .00018311H2161.92V800.7602H-.00012207Z" clip-rule="evenodd"/>
</clipPath>
<clipPath id="clip_154">
<path transform="matrix(1,0,0,-1,0,800.76)" d="M-.00012207 .00018311H2161.92V800.7602H-.00012207Z" clip-rule="evenodd"/>
</clipPath>
<clipPath id="clip_155">
<path transform="matrix(1,0,0,-1,0,800.76)" d="M-.00012207 .00018311H2161.92V800.7602H-.00012207Z" clip-rule="evenodd"/>
</clipPath>
<clipPath id="clip_156">
<path transform="matrix(1,0,0,-1,0,800.76)" d="M0 .00018311H2161.92V800.7602H0Z" clip-rule="evenodd"/>
</clipPath>
<clipPath id="clip_157">
<path transform="matrix(1,0,0,-1,0,800.76)" d="M0 .00018311H2161.92V800.7602H0Z" clip-rule="evenodd"/>
</clipPath>
<clipPath id="clip_158">
<path transform="matrix(1,0,0,-1,0,800.76)" d="M0 .00018311H2161.92V800.7602H0Z" clip-rule="evenodd"/>
</clipPath>
<clipPath id="clip_159">
<path transform="matrix(1,0,0,-1,0,800.76)" d="M0 .00018311H2161.92V800.7602H0Z" clip-rule="evenodd"/>
</clipPath>
<clipPath id="clip_160">
<path transform="matrix(1,0,0,-1,0,800.76)" d="M0 .00018311H2161.92V800.7602H0Z" clip-rule="evenodd"/>
</clipPath>
<clipPath id="clip_161">
<path transform="matrix(1,0,0,-1,0,800.76)" d="M0 .00018311H2161.92V800.7602H0Z" clip-rule="evenodd"/>
</clipPath>
<clipPath id="clip_162">
<path transform="matrix(1,0,0,-1,0,800.76)" d="M0 .00018311H2161.92V800.7602H0Z" clip-rule="evenodd"/>
</clipPath>
<clipPath id="clip_163">
<path transform="matrix(1,0,0,-1,0,800.76)" d="M0 .00018311H2161.92V800.7602H0Z" clip-rule="evenodd"/>
</clipPath>
<clipPath id="clip_164">
<path transform="matrix(1,0,0,-1,0,800.76)" d="M.000032215 0H2161.92V800.76H.000032215Z" clip-rule="evenodd"/>
</clipPath>
<clipPath id="clip_165">
<path transform="matrix(1,0,0,-1,0,800.76)" d="M.000032215 0H2161.92V800.76H.000032215Z" clip-rule="evenodd"/>
</clipPath>
<clipPath id="clip_166">
<path transform="matrix(1,0,0,-1,0,800.76)" d="M.000032215 0H2161.92V800.76H.000032215Z" clip-rule="evenodd"/>
</clipPath>
<clipPath id="clip_167">
<path transform="matrix(1,0,0,-1,0,800.76)" d="M-.00012207 .00018311H2161.92V800.7602H-.00012207Z" clip-rule="evenodd"/>
</clipPath>
<clipPath id="clip_168">
<path transform="matrix(1,0,0,-1,0,800.76)" d="M-.00012207 .00018311H2161.92V800.7602H-.00012207Z" clip-rule="evenodd"/>
</clipPath>
<clipPath id="clip_169">
<path transform="matrix(1,0,0,-1,0,800.76)" d="M-.00012207 .00018311H2161.92V800.7602H-.00012207Z" clip-rule="evenodd"/>
</clipPath>
<clipPath id="clip_170">
<path transform="matrix(1,0,0,-1,0,800.76)" d="M-.00012207 .00018311H2161.92V800.7602H-.00012207Z" clip-rule="evenodd"/>
</clipPath>
<clipPath id="clip_171">
<path transform="matrix(1,0,0,-1,0,800.76)" d="M0 .00018311H2161.92V800.7602H0Z" clip-rule="evenodd"/>
</clipPath>
<clipPath id="clip_172">
<path transform="matrix(1,0,0,-1,0,800.76)" d="M0 .00018311H2161.92V800.7602H0Z" clip-rule="evenodd"/>
</clipPath>
<clipPath id="clip_173">
<path transform="matrix(1,0,0,-1,0,800.76)" d="M0 .00018311H2161.92V800.7602H0Z" clip-rule="evenodd"/>
</clipPath>
<clipPath id="clip_174">
<path transform="matrix(1,0,0,-1,0,800.76)" d="M0 .00018311H2161.92V800.7602H0Z" clip-rule="evenodd"/>
</clipPath>
<clipPath id="clip_175">
<path transform="matrix(1,0,0,-1,0,800.76)" d="M0 .00018311H2161.92V800.7602H0Z" clip-rule="evenodd"/>
</clipPath>
<clipPath id="clip_176">
<path transform="matrix(1,0,0,-1,0,800.76)" d="M0 .00018311H2161.92V800.7602H0Z" clip-rule="evenodd"/>
</clipPath>
<clipPath id="clip_177">
<path transform="matrix(1,0,0,-1,0,800.76)" d="M0 .00018311H2161.92V800.7602H0Z" clip-rule="evenodd"/>
</clipPath>
<clipPath id="clip_178">
<path transform="matrix(1,0,0,-1,0,800.76)" d="M0 .00018311H2161.92V800.7602H0Z" clip-rule="evenodd"/>
</clipPath>
<clipPath id="clip_179">
<path transform="matrix(1,0,0,-1,0,800.76)" d="M.000032215 0H2161.92V800.76H.000032215Z" clip-rule="evenodd"/>
</clipPath>
<clipPath id="clip_180">
<path transform="matrix(1,0,0,-1,0,800.76)" d="M.000032215 0H2161.92V800.76H.000032215Z" clip-rule="evenodd"/>
</clipPath>
<clipPath id="clip_181">
<path transform="matrix(1,0,0,-1,0,800.76)" d="M.000032215 0H2161.92V800.76H.000032215Z" clip-rule="evenodd"/>
</clipPath>
<clipPath id="clip_182">
<path transform="matrix(1,0,0,-1,0,800.76)" d="M-.000030518 .00018311H2161.92V800.7602H-.000030518Z" clip-rule="evenodd"/>
</clipPath>
<clipPath id="clip_183">
<path transform="matrix(1,0,0,-1,0,800.76)" d="M-.000030518 .00018311H2161.92V800.7602H-.000030518Z" clip-rule="evenodd"/>
</clipPath>
<clipPath id="clip_184">
<path transform="matrix(1,0,0,-1,0,800.76)" d="M.000032215 0H2161.92V800.76H.000032215Z" clip-rule="evenodd"/>
</clipPath>
<clipPath id="clip_185">
<path transform="matrix(1,0,0,-1,0,800.76)" d="M0 .00018311H2161.92V800.7602H0Z" clip-rule="evenodd"/>
</clipPath>
<clipPath id="clip_186">
<path transform="matrix(1,0,0,-1,0,800.76)" d="M0 .00018311H2161.92V800.7602H0Z" clip-rule="evenodd"/>
</clipPath>
<clipPath id="clip_187">
<path transform="matrix(1,0,0,-1,0,800.76)" d="M.000032215 0H2161.92V800.76H.000032215Z" clip-rule="evenodd"/>
</clipPath>
<clipPath id="clip_188">
<path transform="matrix(1,0,0,-1,0,800.76)" d="M-.00012207 .00018311H2161.92V800.7602H-.00012207Z" clip-rule="evenodd"/>
</clipPath>
<clipPath id="clip_189">
<path transform="matrix(1,0,0,-1,0,800.76)" d="M-.00012207 .00018311H2161.92V800.7602H-.00012207Z" clip-rule="evenodd"/>
</clipPath>
<clipPath id="clip_190">
<path transform="matrix(1,0,0,-1,0,800.76)" d="M.000032215 0H2161.92V800.76H.000032215Z" clip-rule="evenodd"/>
</clipPath>
<clipPath id="clip_191">
<path transform="matrix(1,0,0,-1,0,800.76)" d="M.000032215 0H2161.92V800.76H.000032215Z" clip-rule="evenodd"/>
</clipPath>
<clipPath id="clip_192">
<path transform="matrix(1,0,0,-1,0,800.76)" d="M.000032215 0H2161.92V800.76H.000032215Z" clip-rule="evenodd"/>
</clipPath>
<clipPath id="clip_193">
<path transform="matrix(1,0,0,-1,0,800.76)" d="M.000032215 0H2161.92V800.76H.000032215Z" clip-rule="evenodd"/>
</clipPath>
</defs>
<g>
<g clip-path="url(#clip_1)">
<path transform="matrix(1,0,0,-1,0,800.76)" d="M0 .010071H2161.87V800.7601H0Z" fill="#ffffff" fill-rule="evenodd"/>
</g>
<g clip-path="url(#clip_2)">
<path transform="matrix(1,0,0,-1,0,800.76)" d="M4.5887 746.96C4.5887 773.05 25.733 794.19 51.817 794.19H2110.06C2136.14 794.19 2157.29 773.05 2157.29 746.96V55.206C2157.29 29.123 2136.14 7.978 2110.06 7.978H51.817C25.733 7.978 4.5887 29.123 4.5887 55.206Z" fill="#ffffff" fill-rule="evenodd"/>
</g>
<g clip-path="url(#clip_3)">
<path transform="matrix(1,0,0,-1,0,800.76)" stroke-width="8" stroke-linecap="butt" stroke-dasharray="8,8" stroke-miterlimit="10" stroke-linejoin="miter" fill="none" stroke="#000000" d="M4.5887 746.96C4.5887 773.05 25.733 794.19 51.817 794.19H2110.06C2136.14 794.19 2157.29 773.05 2157.29 746.96V55.206C2157.29 29.123 2136.14 7.978 2110.06 7.978H51.817C25.733 7.978 4.5887 29.123 4.5887 55.206Z"/>
</g>
<g clip-path="url(#clip_4)">
<path transform="matrix(1,0,0,-1,0,800.76)" d="M40.361 451.95H126.587V538.176H40.361Z" fill="#a9d18e" fill-rule="evenodd"/>
</g>
<g clip-path="url(#clip_5)">
<path transform="matrix(1,0,0,-1,0,800.76)" d="M126.59 538.18 155.33 566.92V480.69L126.59 451.95Z" fill="#88a872" fill-rule="evenodd"/>
</g>
<g clip-path="url(#clip_6)">
<path transform="matrix(1,0,0,-1,0,800.76)" d="M40.361 538.18 69.103 566.92H155.33L126.59 538.18Z" fill="#badaa4" fill-rule="evenodd"/>
</g>
<g clip-path="url(#clip_7)">
<path transform="matrix(1,0,0,-1,0,800.76)" stroke-width="6" stroke-linecap="butt" stroke-miterlimit="10" stroke-linejoin="miter" fill="none" stroke="#2f528f" d="M40.361 538.18 69.103 566.92H155.33V480.69L126.59 451.95H40.361ZM40.361 538.18H126.59L155.33 566.92M126.59 538.18V451.95"/>
</g>
<g clip-path="url(#clip_8)">
<path transform="matrix(1,0,0,-1,0,800.76)" d="M40.361 179.52H126.587V265.746H40.361Z" fill="#f4b183" fill-rule="evenodd"/>
</g>
<g clip-path="url(#clip_9)">
<path transform="matrix(1,0,0,-1,0,800.76)" d="M126.59 265.74 155.33 294.49V208.26L126.59 179.52Z" fill="#c48e69" fill-rule="evenodd"/>
</g>
<g clip-path="url(#clip_10)">
<path transform="matrix(1,0,0,-1,0,800.76)" d="M40.361 265.74 69.103 294.49H155.33L126.59 265.74Z" fill="#f6c09b" fill-rule="evenodd"/>
</g>
<g clip-path="url(#clip_11)">
<path transform="matrix(1,0,0,-1,0,800.76)" stroke-width="6" stroke-linecap="butt" stroke-miterlimit="10" stroke-linejoin="miter" fill="none" stroke="#2f528f" d="M40.361 265.74 69.103 294.49H155.33V208.26L126.59 179.52H40.361ZM40.361 265.74H126.59L155.33 294.49M126.59 265.74V179.52"/>
</g>
<g clip-path="url(#clip_12)">
<path transform="matrix(1,0,0,-1,0,800.76)" d="M139.44 242.45H190.26V234.45H139.44ZM186.26 250.45 210.26 238.45 186.26 226.45Z" fill="#c55a11"/>
</g>
<g clip-path="url(#clip_13)">
<text xml:space="preserve" transform="matrix(1 0 -0 1 0 800.76)" font-size="44.04" font-family="Microsoft YaHei"><tspan y="-123.5" x="36.336 69.894489 81.60912 101.99965 118.16234 146.17179 164.18416 180.25876 205.22945 233.41506">Distorted </tspan></text>
</g>
<g clip-path="url(#clip_14)">
<text xml:space="preserve" transform="matrix(1 0 -0 1 0 800.76)" font-size="44.064" font-family="Microsoft YaHei"><tspan y="-70.704" x="36.336 63.831937 88.199329 104.0183 126.09437 153.2378 178.22208">patches</tspan></text>
</g>
<g clip-path="url(#clip_15)">
<text xml:space="preserve" transform="matrix(1 0 -0 1 0 800.76)" font-size="44.04" font-family="Microsoft YaHei"><tspan y="-637.13" x="30.816 58.296964 83.26765 98.54953 123.52021 139.63886 164.60955 191.73819 213.80223 238.77292">Reference </tspan></text>
</g>
<g clip-path="url(#clip_16)">
<text xml:space="preserve" transform="matrix(1 0 -0 1 0 800.76)" font-size="44.04" font-family="Microsoft YaHei"><tspan y="-584.3" x="30.816 58.296968 82.65109 98.5055 120.56954 147.69818 172.66887">patches</tspan></text>
</g>
<g clip-path="url(#clip_17)">
<text xml:space="preserve" transform="matrix(1 0 -0 1 0 800.76)" font-size="60" font-family="Times New Roman" font-weight="bold"><tspan y="-724.78" x="927.94 964.54">PT</tspan></text>
</g>
<g clip-path="url(#clip_18)">
<text xml:space="preserve" transform="matrix(1 0 -0 1 0 800.76)" font-size="60" font-family="Times New Roman" font-weight="bold"><tspan y="-724.78" x="998.98">-</tspan></text>
</g>
<g clip-path="url(#clip_19)">
<text xml:space="preserve" transform="matrix(1 0 -0 1 0 800.76)" font-size="60" font-family="Times New Roman" font-weight="bold"><tspan y="-724.78" x="1019.02 1059.04 1089.04 1112.38">Loss</tspan></text>
</g>
<g clip-path="url(#clip_20)">
<text xml:space="preserve" transform="matrix(1 0 -0 1 0 800.76)" font-size="39.96" font-family="Times New Roman" font-weight="bold"><tspan y="-205.51" x="49.536">P</tspan></text>
</g>
<g clip-path="url(#clip_21)">
<text xml:space="preserve" transform="matrix(1 0 -0 1 0 800.76)" font-size="26.64" font-family="Times New Roman" font-weight="bold"><tspan y="-195.67" x="73.896 88.70785 96.11377">dis</tspan></text>
</g>
<g clip-path="url(#clip_22)">
<text xml:space="preserve" transform="matrix(1 0 -0 1 0 800.76)" font-size="39.96" font-family="Times New Roman" font-weight="bold"><tspan y="-481.56" x="49.656">P</tspan></text>
</g>
<g clip-path="url(#clip_23)">
<text xml:space="preserve" transform="matrix(1 0 -0 1 0 800.76)" font-size="26.64" font-family="Times New Roman" font-weight="bold"><tspan y="-471.72" x="74.016 85.41792 97.246089">ref</tspan></text>
</g>
<g clip-path="url(#clip_24)">
<path transform="matrix(1,0,0,-1,0,800.76)" d="M140.1 512.31H190.26V504.31H140.1ZM186.26 520.31 210.26 508.31 186.26 496.31Z" fill="#548235"/>
</g>
<g clip-path="url(#clip_25)">
<path transform="matrix(1,0,0,-1,0,800.76)" d="M210.18 215.55H261.268V542.97006H210.18Z" fill="#dbdbdb" fill-rule="evenodd"/>
</g>
<g clip-path="url(#clip_26)">
<path transform="matrix(1,0,0,-1,0,800.76)" d="M261.27 542.97 310.47 592.17V264.75L261.27 215.55Z" fill="#b0b0b0" fill-rule="evenodd"/>
</g>
<g clip-path="url(#clip_27)">
<path transform="matrix(1,0,0,-1,0,800.76)" d="M210.18 542.97 259.38 592.17H310.47L261.27 542.97Z" fill="#e2e2e2" fill-rule="evenodd"/>
</g>
<g clip-path="url(#clip_28)">
<path transform="matrix(1,0,0,-1,0,800.76)" stroke-width="6" stroke-linecap="butt" stroke-miterlimit="10" stroke-linejoin="miter" fill="none" stroke="#2f528f" d="M210.18 542.97 259.38 592.17H310.47V264.75L261.27 215.55H210.18ZM210.18 542.97H261.27L310.47 592.17M261.27 542.97V215.55"/>
</g>
<g clip-path="url(#clip_29)">
<text xml:space="preserve" transform="matrix(-.000000044 -1 1 -.000000044 0 800.76)" font-size="39.96" font-family="Microsoft YaHei"><tspan y="250.27002" x="248.94998 272.36656 302.81608 314.80409 341.53733 366.95188 391.56724 412.54624 424.3744 447.79096 468.05067">2D Conv 3x3</tspan></text>
</g>
<g clip-path="url(#clip_30)">
<path transform="matrix(1,0,0,-1,0,800.76)" d="M274.84 215.22H325.927V542.64H274.84Z" fill="#bdd7ee" fill-rule="evenodd"/>
</g>
<g clip-path="url(#clip_31)">
<path transform="matrix(1,0,0,-1,0,800.76)" d="M325.93 542.64 375.13 591.84V264.42L325.93 215.22Z" fill="#98adbf" fill-rule="evenodd"/>
</g>
<g clip-path="url(#clip_32)">
<path transform="matrix(1,0,0,-1,0,800.76)" d="M274.84 542.64 324.04 591.84H375.13L325.93 542.64Z" fill="#cadff1" fill-rule="evenodd"/>
</g>
<g clip-path="url(#clip_33)">
<path transform="matrix(1,0,0,-1,0,800.76)" stroke-width="6" stroke-linecap="butt" stroke-miterlimit="10" stroke-linejoin="miter" fill="none" stroke="#2f528f" d="M274.84 542.64 324.04 591.84H375.13V264.42L325.93 215.22H274.84ZM274.84 542.64H325.93L375.13 591.84M325.93 542.64V215.22"/>
</g>
<g clip-path="url(#clip_34)">
<text xml:space="preserve" transform="matrix(-.000000044 -1 1 -.000000044 0 800.76)" font-size="39.96" font-family="Microsoft YaHei"><tspan y="314.45" x="242.10999 281.1509 303.24879 340.69129">Mamb</tspan><tspan y="314.45005" x="365.62635 387.7242 399.7921 425.32658 435.95594 461.37049 481.47038">a block</tspan></text>
</g>
<g clip-path="url(#clip_35)">
<path transform="matrix(1,0,0,-1,0,800.76)" d="M341.45 508.12H373.61V500.12H341.45ZM369.61 516.12 393.61 504.12 369.61 492.12Z" fill="#548235"/>
</g>
<g clip-path="url(#clip_36)">
<path transform="matrix(1,0,0,-1,0,800.76)" d="M341.45 308.23H373.61V300.23H341.45ZM369.61 316.23 393.61 304.23 369.61 292.23Z" fill="#c55a11"/>
</g>
<g clip-path="url(#clip_37)">
<path transform="matrix(1,0,0,-1,0,800.76)" d="M1288.59 570.92H1310.74V562.92H1288.59ZM1306.74 578.92 1330.74 566.92 1306.74 554.92Z" fill="#ffc000"/>
</g>
<g clip-path="url(#clip_38)">
<path transform="matrix(1,0,0,-1,0,800.76)" d="M1175.89 568.67C1175.89 599.79 1201.12 625.01 1232.24 625.01 1263.36 625.01 1288.59 599.79 1288.59 568.67 1288.59 537.55 1263.36 512.32 1232.24 512.32 1201.12 512.32 1175.89 537.55 1175.89 568.67Z" fill="#dae3f3" fill-rule="evenodd"/>
</g>
<g clip-path="url(#clip_39)">
<path transform="matrix(1,0,0,-1,0,800.76)" stroke-width="6" stroke-linecap="butt" stroke-miterlimit="10" stroke-linejoin="miter" fill="none" stroke="#2f528f" d="M1175.89 568.67C1175.89 599.79 1201.12 625.01 1232.24 625.01 1263.36 625.01 1288.59 599.79 1288.59 568.67 1288.59 537.55 1263.36 512.32 1232.24 512.32 1201.12 512.32 1175.89 537.55 1175.89 568.67Z"/>
</g>
<g clip-path="url(#clip_40)">
<text xml:space="preserve" transform="matrix(1 0 -0 1 0 800.76)" font-size="60" font-family="Calibri" font-weight="bold"><tspan y="-548.47" x="1223.09">-</tspan></text>
</g>
<g clip-path="url(#clip_41)">
<path transform="matrix(1,0,0,-1,0,800.76)" d="M1175.89 375.96C1175.89 407.08 1201.12 432.31 1232.24 432.31 1263.36 432.31 1288.59 407.08 1288.59 375.96 1288.59 344.84 1263.36 319.62 1232.24 319.62 1201.12 319.62 1175.89 344.84 1175.89 375.96Z" fill="#dae3f3" fill-rule="evenodd"/>
</g>
<g clip-path="url(#clip_42)">
<path transform="matrix(1,0,0,-1,0,800.76)" stroke-width="6" stroke-linecap="butt" stroke-miterlimit="10" stroke-linejoin="miter" fill="none" stroke="#2f528f" d="M1175.89 375.96C1175.89 407.08 1201.12 432.31 1232.24 432.31 1263.36 432.31 1288.59 407.08 1288.59 375.96 1288.59 344.84 1263.36 319.62 1232.24 319.62 1201.12 319.62 1175.89 344.84 1175.89 375.96Z"/>
</g>
<g clip-path="url(#clip_43)">
<text xml:space="preserve" transform="matrix(1 0 -0 1 0 800.76)" font-size="60" font-family="Calibri" font-weight="bold"><tspan y="-355.73" x="1223.09">-</tspan></text>
</g>
<g clip-path="url(#clip_44)">
<path transform="matrix(1,0,0,-1,0,800.76)" d="M1175.89 183.54C1175.89 214.66 1201.12 239.89 1232.24 239.89 1263.36 239.89 1288.59 214.66 1288.59 183.54 1288.59 152.42 1263.36 127.2 1232.24 127.2 1201.12 127.2 1175.89 152.42 1175.89 183.54Z" fill="#dae3f3" fill-rule="evenodd"/>
</g>
<g clip-path="url(#clip_45)">
<path transform="matrix(1,0,0,-1,0,800.76)" stroke-width="6" stroke-linecap="butt" stroke-miterlimit="10" stroke-linejoin="miter" fill="none" stroke="#2f528f" d="M1175.89 183.54C1175.89 214.66 1201.12 239.89 1232.24 239.89 1263.36 239.89 1288.59 214.66 1288.59 183.54 1288.59 152.42 1263.36 127.2 1232.24 127.2 1201.12 127.2 1175.89 152.42 1175.89 183.54Z"/>
</g>
<g clip-path="url(#clip_46)">
<text xml:space="preserve" transform="matrix(1 0 -0 1 0 800.76)" font-size="60.024" font-family="Calibri" font-weight="bold"><tspan y="-163.3" x="1223.09">-</tspan></text>
</g>
<g clip-path="url(#clip_47)">
<path transform="matrix(1,0,0,-1,0,800.76)" d="M750.78 504.31H904.03V582.82L900.03 578.82H1155.08V586.82H896.03V508.31L900.03 512.31H750.78ZM1151.08 570.82 1175.08 582.82 1151.08 594.82Z" fill="#548235"/>
</g>
<g clip-path="url(#clip_48)">
<path transform="matrix(1,0,0,-1,0,800.76)" d="M755.31 512.31H904.77V389.04L900.77 393.04H1155.08V385.04H896.77V508.31L900.77 504.31H755.31ZM1151.08 401.04 1175.08 389.04 1151.08 377.04Z" fill="#548235"/>
</g>
<g clip-path="url(#clip_49)">
<path transform="matrix(1,0,0,-1,0,800.76)" d="M811.06 357.24H874.77V557.71L870.77 553.71H1154.48V561.71H866.77V361.24L870.77 365.24H811.06ZM1150.48 545.71 1174.48 557.71 1150.48 569.71Z" fill="#c55a11"/>
</g>
<g clip-path="url(#clip_50)">
<text xml:space="preserve" transform="matrix(1 0 -0 1 0 800.76)" font-size="32.04" font-family="Microsoft YaHei"><tspan y="-600.02" x="912.48 928.9165 947.0832 963.61587 981.78256 990.3052 999.6288 1018.40426 1027.8881 1039.0701 1057.2367 1074.9548 1086.9058 1106.6425 1118.4011 1136.5678">Level 1 features</tspan></text>
</g>
<g clip-path="url(#clip_51)">
<text xml:space="preserve" transform="matrix(1 0 -0 1 0 800.76)" font-size="32.064" font-family="Microsoft YaHei"><tspan y="-407.93" x="912.48 928.92886 947.10916 963.59 981.7703 990.2994 999.59799 1018.38748 1027.8784 1039.0046 1057.1849 1074.9164 1086.8762 1106.6277 1118.3952 1136.5755">Level 2 features</tspan></text>
</g>
<g clip-path="url(#clip_52)">
<text xml:space="preserve" transform="matrix(1 0 -0 1 0 800.76)" font-size="32.04" font-family="Microsoft YaHei"><tspan y="-211.01" x="912.48 928.9165 947.0832 963.61587 981.78256 990.3052 999.6288 1018.40426 1027.8881 1039.0701 1057.2367 1074.9548 1086.9058 1106.6425 1118.4011 1136.5678">Level 5 features</tspan></text>
</g>
<g clip-path="url(#clip_53)">
<text xml:space="preserve" transform="matrix(-.000000044 1 -1 -.000000044 0 800.76)" font-size="39.96" font-family="Times New Roman" font-weight="bold"><tspan y="-1227.07" x="-300.05006">&#x2026;</tspan></text>
</g>
<g clip-path="url(#clip_54)">
<text xml:space="preserve" transform="matrix(-.000000044 1 -1 -.000000044 0 800.76)" font-size="39.96" font-family="Times New Roman" font-weight="bold"><tspan y="-1014.7" x="-300.05003">&#x2026;</tspan></text>
</g>
<g clip-path="url(#clip_55)">
<path transform="matrix(1,0,0,-1,0,800.76)" d="M1288.59 375.82H1310.74V367.82H1288.59ZM1306.74 383.82 1330.74 371.82 1306.74 359.82Z" fill="#ffc000"/>
</g>
<g clip-path="url(#clip_56)">
<path transform="matrix(1,0,0,-1,0,800.76)" d="M1288.59 188.72H1310.74V180.72H1288.59ZM1306.74 196.72 1330.74 184.72 1306.74 172.72Z" fill="#ffc000"/>
</g>
<g clip-path="url(#clip_57)">
<path transform="matrix(1,0,0,-1,0,800.76)" d="M1499.59 568.67C1499.59 599.79 1524.82 625.01 1555.93 625.01 1587.05 625.01 1612.28 599.79 1612.28 568.67 1612.28 537.55 1587.05 512.32 1555.93 512.32 1524.82 512.32 1499.59 537.55 1499.59 568.67Z" fill="#dae3f3" fill-rule="evenodd"/>
</g>
<g clip-path="url(#clip_58)">
<path transform="matrix(1,0,0,-1,0,800.76)" stroke-width="6" stroke-linecap="butt" stroke-miterlimit="10" stroke-linejoin="miter" fill="none" stroke="#2f528f" d="M1499.59 568.67C1499.59 599.79 1524.82 625.01 1555.93 625.01 1587.05 625.01 1612.28 599.79 1612.28 568.67 1612.28 537.55 1587.05 512.32 1555.93 512.32 1524.82 512.32 1499.59 537.55 1499.59 568.67Z"/>
</g>
<g clip-path="url(#clip_59)">
<text xml:space="preserve" transform="matrix(1 0 -0 1 0 800.76)" font-size="60" font-family="Calibri" font-weight="bold"><tspan y="-548.47" x="1540.08">C</tspan></text>
</g>
<g clip-path="url(#clip_60)">
<path transform="matrix(1,0,0,-1,0,800.76)" d="M1437.85 570.92H1479.33V562.92H1437.85ZM1475.33 578.92 1499.33 566.92 1475.33 554.92Z"/>
</g>
<g clip-path="url(#clip_61)">
<path transform="matrix(1,0,0,-1,0,800.76)" d="M1499.59 376.29C1499.59 407.41 1524.82 432.63 1555.93 432.63 1587.05 432.63 1612.28 407.41 1612.28 376.29 1612.28 345.17 1587.05 319.94 1555.93 319.94 1524.82 319.94 1499.59 345.17 1499.59 376.29Z" fill="#dae3f3" fill-rule="evenodd"/>
</g>
<g clip-path="url(#clip_62)">
<path transform="matrix(1,0,0,-1,0,800.76)" stroke-width="6" stroke-linecap="butt" stroke-miterlimit="10" stroke-linejoin="miter" fill="none" stroke="#2f528f" d="M1499.59 376.29C1499.59 407.41 1524.82 432.63 1555.93 432.63 1587.05 432.63 1612.28 407.41 1612.28 376.29 1612.28 345.17 1587.05 319.94 1555.93 319.94 1524.82 319.94 1499.59 345.17 1499.59 376.29Z"/>
</g>
<g clip-path="url(#clip_63)">
<text xml:space="preserve" transform="matrix(1 0 -0 1 0 800.76)" font-size="60" font-family="Calibri" font-weight="bold"><tspan y="-356.06" x="1540.08">C</tspan></text>
</g>
<g clip-path="url(#clip_64)">
<path transform="matrix(1,0,0,-1,0,800.76)" d="M1437.85 378.54H1479.33V370.54H1437.85ZM1475.33 386.54 1499.33 374.54 1475.33 362.54Z"/>
</g>
<g clip-path="url(#clip_65)">
<path transform="matrix(1,0,0,-1,0,800.76)" d="M1499.59 183.9C1499.59 215.02 1524.82 240.25 1555.93 240.25 1587.05 240.25 1612.28 215.02 1612.28 183.9 1612.28 152.78 1587.05 127.56 1555.93 127.56 1524.82 127.56 1499.59 152.78 1499.59 183.9Z" fill="#dae3f3" fill-rule="evenodd"/>
</g>
<g clip-path="url(#clip_66)">
<path transform="matrix(1,0,0,-1,0,800.76)" stroke-width="6" stroke-linecap="butt" stroke-miterlimit="10" stroke-linejoin="miter" fill="none" stroke="#2f528f" d="M1499.59 183.9C1499.59 215.02 1524.82 240.25 1555.93 240.25 1587.05 240.25 1612.28 215.02 1612.28 183.9 1612.28 152.78 1587.05 127.56 1555.93 127.56 1524.82 127.56 1499.59 152.78 1499.59 183.9Z"/>
</g>
<g clip-path="url(#clip_67)">
<text xml:space="preserve" transform="matrix(1 0 -0 1 0 800.76)" font-size="60.024" font-family="Calibri" font-weight="bold"><tspan y="-163.66" x="1540.08">C</tspan></text>
</g>
<g clip-path="url(#clip_68)">
<path transform="matrix(1,0,0,-1,0,800.76)" d="M1437.85 186.15H1479.33V178.15H1437.85ZM1475.33 194.15 1499.33 182.15 1475.33 170.15Z"/>
</g>
<g clip-path="url(#clip_69)">
<path transform="matrix(1,0,0,-1,0,800.76)" d="M1612.28 570.92H1732.12V562.92H1612.28ZM1728.12 578.92 1752.12 566.92 1728.12 554.92Z"/>
</g>
<g clip-path="url(#clip_70)">
<path transform="matrix(1,0,0,-1,0,800.76)" d="M1865.19 376.44C1865.19 407.56 1890.42 432.79 1921.54 432.79 1952.66 432.79 1977.88 407.56 1977.88 376.44 1977.88 345.32 1952.66 320.1 1921.54 320.1 1890.42 320.1 1865.19 345.32 1865.19 376.44Z" fill="#dae3f3" fill-rule="evenodd"/>
</g>
<g clip-path="url(#clip_71)">
<path transform="matrix(1,0,0,-1,0,800.76)" stroke-width="6" stroke-linecap="butt" stroke-miterlimit="10" stroke-linejoin="miter" fill="none" stroke="#2f528f" d="M1865.19 376.44C1865.19 407.56 1890.42 432.79 1921.54 432.79 1952.66 432.79 1977.88 407.56 1977.88 376.44 1977.88 345.32 1952.66 320.1 1921.54 320.1 1890.42 320.1 1865.19 345.32 1865.19 376.44Z"/>
</g>
<g clip-path="url(#clip_72)">
<text xml:space="preserve" transform="matrix(1 0 -0 1 0 800.76)" font-size="60" font-family="Calibri" font-weight="bold"><tspan y="-356.21" x="1903.42">A</tspan></text>
</g>
<g clip-path="url(#clip_73)">
<path transform="matrix(1,0,0,-1,0,800.76)" d="M2048.78 340.73H2099.496V391.446H2048.78Z" fill="#00b0f0" fill-rule="evenodd"/>
</g>
<g clip-path="url(#clip_74)">
<path transform="matrix(1,0,0,-1,0,800.76)" d="M2099.49 391.44 2116.4 408.35V357.63L2099.49 340.73Z" fill="#008dc1" fill-rule="evenodd"/>
</g>
<g clip-path="url(#clip_75)">
<path transform="matrix(1,0,0,-1,0,800.76)" d="M2048.78 391.44 2065.68 408.35H2116.4L2099.49 391.44Z" fill="#32bff3" fill-rule="evenodd"/>
</g>
<g clip-path="url(#clip_76)">
<path transform="matrix(1,0,0,-1,0,800.76)" stroke-width="6" stroke-linecap="butt" stroke-miterlimit="10" stroke-linejoin="miter" fill="none" stroke="#2f528f" d="M2048.78 391.44 2065.68 408.35H2116.4V357.63L2099.49 340.73H2048.78ZM2048.78 391.44H2099.49L2116.4 408.35M2099.49 391.44V340.73"/>
</g>
<g clip-path="url(#clip_77)">
<path transform="matrix(1,0,0,-1,0,800.76)" d="M1977.99 378.54 2016.4 378.15 2016.32 370.15 1977.91 370.54ZM2012.48 386.19 2036.36 373.95 2012.24 362.19Z"/>
</g>
<g clip-path="url(#clip_78)">
<text xml:space="preserve" transform="matrix(1 0 -0 1 0 800.76)" font-size="32.04" font-family="Microsoft YaHei"><tspan y="-581.33" x="1627.97 1639.0879 1658.8887 1673.7232 1682.2457 1702.6232">fusion</tspan></text>
</g>
<g clip-path="url(#clip_79)">
<text xml:space="preserve" transform="matrix(1 0 -0 1 0 800.76)" font-size="32.04" font-family="Microsoft YaHei"><tspan y="-526.75" x="1615.37 1631.422 1651.1587 1668.8768 1688.6135 1708.4463 1726.6129">channel</tspan></text>
</g>
<g clip-path="url(#clip_80)">
<text xml:space="preserve" transform="matrix(1 0 -0 1 0 800.76)" font-size="32.04" font-family="Microsoft YaHei"><tspan y="-488.35" x="1644.53 1662.2482 1674.1991 1686.054">attn</tspan></text>
</g>
<g clip-path="url(#clip_81)">
<path transform="matrix(1,0,0,-1,0,800.76)" d="M1612.28 380.09H1732.12V372.09H1612.28ZM1728.12 388.09 1752.12 376.09 1728.12 364.09Z"/>
</g>
<g clip-path="url(#clip_82)">
<text xml:space="preserve" transform="matrix(1 0 -0 1 0 800.76)" font-size="32.04" font-family="Microsoft YaHei"><tspan y="-390.48" x="1627.97 1639.0879 1658.8887 1673.7232 1682.2457 1702.6232">fusion</tspan></text>
</g>
<g clip-path="url(#clip_83)">
<text xml:space="preserve" transform="matrix(1 0 -0 1 0 800.76)" font-size="32.064" font-family="Microsoft YaHei"><tspan y="-335.9" x="1615.37 1631.4341 1651.1856 1668.917 1688.6685 1708.4199 1726.6002">channel</tspan></text>
</g>
<g clip-path="url(#clip_84)">
<text xml:space="preserve" transform="matrix(1 0 -0 1 0 800.76)" font-size="32.04" font-family="Microsoft YaHei"><tspan y="-297.48" x="1644.53 1662.2482 1674.1991 1686.054">attn</tspan></text>
</g>
<g clip-path="url(#clip_85)">
<path transform="matrix(1,0,0,-1,0,800.76)" d="M1612.28 185.25H1732.12V177.25H1612.28ZM1728.12 193.25 1752.12 181.25 1728.12 169.25Z"/>
</g>
<g clip-path="url(#clip_86)">
<text xml:space="preserve" transform="matrix(1 0 -0 1 0 800.76)" font-size="32.04" font-family="Microsoft YaHei"><tspan y="-195.6" x="1627.97 1639.0879 1658.8887 1673.7232 1682.2457 1702.6232">fusion</tspan></text>
</g>
<g clip-path="url(#clip_87)">
<text xml:space="preserve" transform="matrix(1 0 -0 1 0 800.76)" font-size="32.04" font-family="Microsoft YaHei"><tspan y="-141.02" x="1615.37 1631.422 1651.1587 1668.8768 1688.6135 1708.4463 1726.6129">channel</tspan></text>
</g>
<g clip-path="url(#clip_88)">
<text xml:space="preserve" transform="matrix(1 0 -0 1 0 800.76)" font-size="32.04" font-family="Microsoft YaHei"><tspan y="-102.62" x="1644.53 1662.2482 1674.1991 1686.054">attn</tspan></text>
</g>
<g clip-path="url(#clip_89)">
<path transform="matrix(1,0,0,-1,0,800.76)" d="M1798.38 570.65 1875.27 435.64 1868.32 431.68 1791.43 566.69ZM1880.24 443.08 1881.69 416.29 1859.39 431.2Z"/>
</g>
<g clip-path="url(#clip_90)">
<path transform="matrix(1,0,0,-1,0,800.76)" d="M1791.11 381.49 1845.25 380.72 1845.13 372.73 1791 373.49ZM1841.36 388.78 1865.19 376.44 1841.02 364.78Z"/>
</g>
<g clip-path="url(#clip_91)">
<path transform="matrix(1,0,0,-1,0,800.76)" d="M1798.43 172.67 1875.78 317.08 1868.72 320.86 1791.38 176.45ZM1880.94 309.78 1881.69 336.6 1859.78 321.11Z"/>
</g>
<g clip-path="url(#clip_92)">
<path transform="matrix(1,0,0,-1,0,800.76)" stroke-width="4.5" stroke-linecap="butt" stroke-miterlimit="10" stroke-linejoin="miter" fill="none" stroke="#548235" d="M339.51 243.64H898.62"/>
</g>
<g clip-path="url(#clip_93)">
<path transform="matrix(1,0,0,-1,0,800.76)" stroke-width="4.5" stroke-linecap="butt" stroke-miterlimit="10" stroke-linejoin="miter" fill="none" stroke="#c55a11" d="M339.51 239.47H869.95"/>
</g>
<g clip-path="url(#clip_94)">
<text xml:space="preserve" transform="matrix(1 0 -0 1 0 800.76)" font-size="44.064" font-family="Microsoft YaHei"><tspan y="-272.28" x="1902.77 1928.195 1952.5624 1968.3814 1990.4574">Patch</tspan></text>
</g>
<g clip-path="url(#clip_95)">
<text xml:space="preserve" transform="matrix(1 0 -0 1 0 800.76)" font-size="44.064" font-family="Microsoft YaHei"><tspan y="-272.28" x="2017.61">-</tspan></text>
</g>
<g clip-path="url(#clip_96)">
<text xml:space="preserve" transform="matrix(1 0 -0 1 0 800.76)" font-size="44.064" font-family="Microsoft YaHei"><tspan y="-272.28" x="2036.71 2048.431 2073.4154 2096.3287 2121.313">level</tspan></text>
</g>
<g clip-path="url(#clip_97)">
<text xml:space="preserve" transform="matrix(1 0 -0 1 0 800.76)" font-size="44.04" font-family="Microsoft YaHei"><tspan y="-219.46" x="1918.49 1946.6316 1962.7503 1987.721 2015.9065 2027.6211 2049.685 2066.112 2077.8267 2105.8363">prediction</tspan></text>
</g>
<g clip-path="url(#clip_98)">
<path transform="matrix(1,0,0,-1,0,800.76)" d="M395.6 268.33H446.68803V542.97H395.6Z" fill="#dbdbdb" fill-rule="evenodd"/>
</g>
<g clip-path="url(#clip_99)">
<path transform="matrix(1,0,0,-1,0,800.76)" d="M446.69 542.97 495.88 592.17V317.53L446.69 268.33Z" fill="#b0b0b0" fill-rule="evenodd"/>
</g>
<g clip-path="url(#clip_100)">
<path transform="matrix(1,0,0,-1,0,800.76)" d="M395.6 542.97 444.8 592.17H495.88L446.69 542.97Z" fill="#e2e2e2" fill-rule="evenodd"/>
</g>
<g clip-path="url(#clip_101)">
<path transform="matrix(1,0,0,-1,0,800.76)" stroke-width="6" stroke-linecap="butt" stroke-miterlimit="10" stroke-linejoin="miter" fill="none" stroke="#2f528f" d="M395.6 542.97 444.8 592.17H495.88V317.53L446.69 268.33H395.6ZM395.6 542.97H446.69L495.88 592.17M446.69 542.97V268.33"/>
</g>
<g clip-path="url(#clip_102)">
<path transform="matrix(1,0,0,-1,0,800.76)" d="M460.26 268H511.34803V542.64H460.26Z" fill="#bdd7ee" fill-rule="evenodd"/>
</g>
<g clip-path="url(#clip_103)">
<path transform="matrix(1,0,0,-1,0,800.76)" d="M511.34 542.64 560.54 591.84V317.2L511.34 268Z" fill="#98adbf" fill-rule="evenodd"/>
</g>
<g clip-path="url(#clip_104)">
<path transform="matrix(1,0,0,-1,0,800.76)" d="M460.26 542.64 509.45 591.84H560.54L511.34 542.64Z" fill="#cadff1" fill-rule="evenodd"/>
</g>
<g clip-path="url(#clip_105)">
<path transform="matrix(1,0,0,-1,0,800.76)" stroke-width="6" stroke-linecap="butt" stroke-miterlimit="10" stroke-linejoin="miter" fill="none" stroke="#2f528f" d="M460.26 542.64 509.45 591.84H560.54V317.2L511.34 268H460.26ZM460.26 542.64H511.34L560.54 591.84M511.34 542.64V268"/>
</g>
<g clip-path="url(#clip_106)">
<path transform="matrix(1,0,0,-1,0,800.76)" d="M525.32 508.12H557.47V500.12H525.32ZM553.47 516.12 577.47 504.12 553.47 492.12Z" fill="#548235"/>
</g>
<g clip-path="url(#clip_107)">
<path transform="matrix(1,0,0,-1,0,800.76)" d="M525.32 358.22H557.47V350.22H525.32ZM553.47 366.22 577.47 354.21 553.47 342.22Z" fill="#c55a11"/>
</g>
<g clip-path="url(#clip_108)">
<text xml:space="preserve" transform="matrix(1 0 -0 1 0 800.76)" font-size="39.96" font-family="Times New Roman" font-weight="bold"><tspan y="-501.14" x="577.51">&#x2026;</tspan></text>
</g>
<g clip-path="url(#clip_109)">
<text xml:space="preserve" transform="matrix(1 0 -0 1 0 800.76)" font-size="39.96" font-family="Times New Roman" font-weight="bold"><tspan y="-351.14" x="577.51">&#x2026;</tspan></text>
</g>
<g clip-path="url(#clip_110)">
<path transform="matrix(1,0,0,-1,0,800.76)" d="M620.65 508.12H652.81V500.12H620.65ZM648.81 516.12 672.81 504.12 648.81 492.12Z" fill="#548235"/>
</g>
<g clip-path="url(#clip_111)">
<path transform="matrix(1,0,0,-1,0,800.76)" d="M620.65 358.22H652.81V350.22H620.65ZM648.81 366.22 672.81 354.21 648.81 342.22Z" fill="#c55a11"/>
</g>
<g clip-path="url(#clip_112)">
<path transform="matrix(1,0,0,-1,0,800.76)" d="M673.25 318.84H724.337V542.97H673.25Z" fill="#dbdbdb" fill-rule="evenodd"/>
</g>
<g clip-path="url(#clip_113)">
<path transform="matrix(1,0,0,-1,0,800.76)" d="M724.34 542.97 773.54 592.17V368.04L724.34 318.84Z" fill="#b0b0b0" fill-rule="evenodd"/>
</g>
<g clip-path="url(#clip_114)">
<path transform="matrix(1,0,0,-1,0,800.76)" d="M673.25 542.97 722.45 592.17H773.54L724.34 542.97Z" fill="#e2e2e2" fill-rule="evenodd"/>
</g>
<g clip-path="url(#clip_115)">
<path transform="matrix(1,0,0,-1,0,800.76)" stroke-width="6" stroke-linecap="butt" stroke-miterlimit="10" stroke-linejoin="miter" fill="none" stroke="#2f528f" d="M673.25 542.97 722.45 592.17H773.54V368.04L724.34 318.84H673.25ZM673.25 542.97H724.34L773.54 592.17M724.34 542.97V318.84"/>
</g>
<g clip-path="url(#clip_116)">
<path transform="matrix(1,0,0,-1,0,800.76)" d="M737.91 318.51H788.99697V542.64H737.91Z" fill="#bdd7ee" fill-rule="evenodd"/>
</g>
<g clip-path="url(#clip_117)">
<path transform="matrix(1,0,0,-1,0,800.76)" d="M789 542.64 838.2 591.84V367.71L789 318.51Z" fill="#98adbf" fill-rule="evenodd"/>
</g>
<g clip-path="url(#clip_118)">
<path transform="matrix(1,0,0,-1,0,800.76)" d="M737.91 542.64 787.11 591.84H838.2L789 542.64Z" fill="#cadff1" fill-rule="evenodd"/>
</g>
<g clip-path="url(#clip_119)">
<path transform="matrix(1,0,0,-1,0,800.76)" stroke-width="6" stroke-linecap="butt" stroke-miterlimit="10" stroke-linejoin="miter" fill="none" stroke="#2f528f" d="M737.91 542.64 787.11 591.84H838.2V367.71L789 318.51H737.91ZM737.91 542.64H789L838.2 591.84M789 542.64V318.51"/>
</g>
<g clip-path="url(#clip_120)">
<path transform="matrix(1,0,0,-1,0,800.76)" d="M810.76 357.24H874.92V363.17L870.92 359.17H1155.08V367.17H866.92V361.24L870.92 365.24H810.76ZM1151.08 351.17 1175.08 363.17 1151.08 375.17Z" fill="#c55a11"/>
</g>
<g clip-path="url(#clip_121)">
<path transform="matrix(1,0,0,-1,0,800.76)" d="M812.96 512.31H902.42V194.71L898.42 198.71H1153.88V190.71H894.42V508.31L898.42 504.31H812.96ZM1149.88 206.71 1173.88 194.71 1149.88 182.71Z" fill="#548235"/>
</g>
<g clip-path="url(#clip_122)">
<path transform="matrix(1,0,0,-1,0,800.76)" stroke-width="4.5" stroke-linecap="butt" stroke-miterlimit="10" stroke-linejoin="miter" fill="none" stroke="#548235" d="M525.32 292.66H901.29"/>
</g>
<g clip-path="url(#clip_123)">
<path transform="matrix(1,0,0,-1,0,800.76)" stroke-width="4.5" stroke-linecap="butt" stroke-miterlimit="10" stroke-linejoin="miter" fill="none" stroke="#c55a11" d="M525.32 288.49H870.62"/>
</g>
<g clip-path="url(#clip_124)">
<path transform="matrix(1,0,0,-1,0,800.76)" d="M811.06 365.24H875.44V169.56L871.44 173.56H1154.48V165.56H867.44V361.24L871.44 357.24H811.06ZM1150.48 181.56 1174.48 169.56 1150.48 157.56Z" fill="#c55a11"/>
</g>
<g clip-path="url(#clip_125)">
<path transform="matrix(1,0,0,-1,0,800.76)" d="M1332.4 490.58H1366.032V642.39H1332.4Z" fill="#ffd966" fill-rule="evenodd"/>
</g>
<g clip-path="url(#clip_126)">
<path transform="matrix(1,0,0,-1,0,800.76)" d="M1366.04 642.39 1377.25 653.6V501.79L1366.04 490.58Z" fill="#cdae52" fill-rule="evenodd"/>
</g>
<g clip-path="url(#clip_127)">
<path transform="matrix(1,0,0,-1,0,800.76)" d="M1332.4 642.39 1343.61 653.6H1377.25L1366.04 642.39Z" fill="#ffe084" fill-rule="evenodd"/>
</g>
<g clip-path="url(#clip_128)">
<path transform="matrix(1,0,0,-1,0,800.76)" stroke-width="6" stroke-linecap="butt" stroke-miterlimit="10" stroke-linejoin="miter" fill="none" stroke="#2f528f" d="M1332.4 642.39 1343.61 653.6H1377.25V501.79L1366.04 490.58H1332.4ZM1332.4 642.39H1366.04L1377.25 653.6M1366.04 642.39V490.58"/>
</g>
<g clip-path="url(#clip_129)">
<path transform="matrix(1,0,0,-1,0,800.76)" d="M1366.33 490.58H1399.9619V642.39H1366.33Z" fill="#a9d18e" fill-rule="evenodd"/>
</g>
<g clip-path="url(#clip_130)">
<path transform="matrix(1,0,0,-1,0,800.76)" d="M1399.96 642.39 1411.17 653.6V501.79L1399.96 490.58Z" fill="#88a872" fill-rule="evenodd"/>
</g>
<g clip-path="url(#clip_131)">
<path transform="matrix(1,0,0,-1,0,800.76)" d="M1366.33 642.39 1377.54 653.6H1411.17L1399.96 642.39Z" fill="#badaa4" fill-rule="evenodd"/>
</g>
<g clip-path="url(#clip_132)">
<path transform="matrix(1,0,0,-1,0,800.76)" stroke-width="6" stroke-linecap="butt" stroke-miterlimit="10" stroke-linejoin="miter" fill="none" stroke="#2f528f" d="M1366.33 642.39 1377.54 653.6H1411.17V501.79L1399.96 490.58H1366.33ZM1366.33 642.39H1399.96L1411.17 653.6M1399.96 642.39V490.58"/>
</g>
<g clip-path="url(#clip_133)">
<path transform="matrix(1,0,0,-1,0,800.76)" d="M1400.25 490.58H1433.882V642.39H1400.25Z" fill="#f4b183" fill-rule="evenodd"/>
</g>
<g clip-path="url(#clip_134)">
<path transform="matrix(1,0,0,-1,0,800.76)" d="M1433.89 642.39 1445.1 653.6V501.79L1433.89 490.58Z" fill="#c48e69" fill-rule="evenodd"/>
</g>
<g clip-path="url(#clip_135)">
<path transform="matrix(1,0,0,-1,0,800.76)" d="M1400.25 642.39 1411.47 653.6H1445.1L1433.89 642.39Z" fill="#f6c09b" fill-rule="evenodd"/>
</g>
<g clip-path="url(#clip_136)">
<path transform="matrix(1,0,0,-1,0,800.76)" stroke-width="6" stroke-linecap="butt" stroke-miterlimit="10" stroke-linejoin="miter" fill="none" stroke="#2f528f" d="M1400.25 642.39 1411.47 653.6H1445.1V501.79L1433.89 490.58H1400.25ZM1400.25 642.39H1433.89L1445.1 653.6M1433.89 642.39V490.58"/>
</g>
<g clip-path="url(#clip_137)">
<text xml:space="preserve" transform="matrix(-.000000044 -1 1 -.000000044 0 800.76)" font-size="32.04" font-family="Microsoft YaHei"><tspan y="1355.86" x="543.0999 554.8586 573.02529">res</tspan></text>
</g>
<g clip-path="url(#clip_138)">
<text xml:space="preserve" transform="matrix(-.000000044 -1 1 -.000000044 0 800.76)" font-size="32.04" font-family="Microsoft YaHei"><tspan y="1394.76" x="545.01998 556.7786 574.9453">ref</tspan></text>
</g>
<g clip-path="url(#clip_139)">
<text xml:space="preserve" transform="matrix(-.000000044 -1 1 -.000000044 0 800.76)" font-size="32.04" font-family="Microsoft YaHei"><tspan y="1429.61" x="543.57998 564.0856 572.6082">dis</tspan></text>
</g>
<g clip-path="url(#clip_140)">
<path transform="matrix(1,0,0,-1,0,800.76)" d="M1755.37 490.93H1789.002V642.74H1755.37Z" fill="#8497b0" fill-rule="evenodd"/>
</g>
<g clip-path="url(#clip_141)">
<path transform="matrix(1,0,0,-1,0,800.76)" d="M1789 642.74 1800.21 653.95V502.14L1789 490.93Z" fill="#6a798d" fill-rule="evenodd"/>
</g>
<g clip-path="url(#clip_142)">
<path transform="matrix(1,0,0,-1,0,800.76)" d="M1755.37 642.74 1766.58 653.95H1800.21L1789 642.74Z" fill="#9cabbf" fill-rule="evenodd"/>
</g>
<g clip-path="url(#clip_143)">
<path transform="matrix(1,0,0,-1,0,800.76)" stroke-width="6" stroke-linecap="butt" stroke-miterlimit="10" stroke-linejoin="miter" fill="none" stroke="#2f528f" d="M1755.37 642.74 1766.58 653.95H1800.21V502.14L1789 490.93H1755.37ZM1755.37 642.74H1789L1800.21 653.95M1789 642.74V490.93"/>
</g>
<g clip-path="url(#clip_144)">
<path transform="matrix(1,0,0,-1,0,800.76)" d="M1755.37 294.93H1789.002V446.74H1755.37Z" fill="#8497b0" fill-rule="evenodd"/>
</g>
<g clip-path="url(#clip_145)">
<path transform="matrix(1,0,0,-1,0,800.76)" d="M1789 446.74 1800.21 457.95V306.14L1789 294.93Z" fill="#6a798d" fill-rule="evenodd"/>
</g>
<g clip-path="url(#clip_146)">
<path transform="matrix(1,0,0,-1,0,800.76)" d="M1755.37 446.74 1766.58 457.95H1800.21L1789 446.74Z" fill="#9cabbf" fill-rule="evenodd"/>
</g>
<g clip-path="url(#clip_147)">
<path transform="matrix(1,0,0,-1,0,800.76)" stroke-width="6" stroke-linecap="butt" stroke-miterlimit="10" stroke-linejoin="miter" fill="none" stroke="#2f528f" d="M1755.37 446.74 1766.58 457.95H1800.21V306.14L1789 294.93H1755.37ZM1755.37 446.74H1789L1800.21 457.95M1789 446.74V294.93"/>
</g>
<g clip-path="url(#clip_148)">
<path transform="matrix(1,0,0,-1,0,800.76)" d="M1755.37 105.76H1789.002V257.57H1755.37Z" fill="#8497b0" fill-rule="evenodd"/>
</g>
<g clip-path="url(#clip_149)">
<path transform="matrix(1,0,0,-1,0,800.76)" d="M1789 257.57 1800.21 268.78V116.97L1789 105.76Z" fill="#6a798d" fill-rule="evenodd"/>
</g>
<g clip-path="url(#clip_150)">
<path transform="matrix(1,0,0,-1,0,800.76)" d="M1755.37 257.57 1766.58 268.78H1800.21L1789 257.57Z" fill="#9cabbf" fill-rule="evenodd"/>
</g>
<g clip-path="url(#clip_151)">
<path transform="matrix(1,0,0,-1,0,800.76)" stroke-width="6" stroke-linecap="butt" stroke-miterlimit="10" stroke-linejoin="miter" fill="none" stroke="#2f528f" d="M1755.37 257.57 1766.58 268.78H1800.21V116.97L1789 105.76H1755.37ZM1755.37 257.57H1789L1800.21 268.78M1789 257.57V105.76"/>
</g>
<g clip-path="url(#clip_152)">
<path transform="matrix(1,0,0,-1,0,800.76)" d="M1332.4 291.3H1366.032V443.11H1332.4Z" fill="#ffd966" fill-rule="evenodd"/>
</g>
<g clip-path="url(#clip_153)">
<path transform="matrix(1,0,0,-1,0,800.76)" d="M1366.04 443.11 1377.25 454.32V302.51L1366.04 291.3Z" fill="#cdae52" fill-rule="evenodd"/>
</g>
<g clip-path="url(#clip_154)">
<path transform="matrix(1,0,0,-1,0,800.76)" d="M1332.4 443.11 1343.61 454.32H1377.25L1366.04 443.11Z" fill="#ffe084" fill-rule="evenodd"/>
</g>
<g clip-path="url(#clip_155)">
<path transform="matrix(1,0,0,-1,0,800.76)" stroke-width="6" stroke-linecap="butt" stroke-miterlimit="10" stroke-linejoin="miter" fill="none" stroke="#2f528f" d="M1332.4 443.11 1343.61 454.32H1377.25V302.51L1366.04 291.3H1332.4ZM1332.4 443.11H1366.04L1377.25 454.32M1366.04 443.11V291.3"/>
</g>
<g clip-path="url(#clip_156)">
<path transform="matrix(1,0,0,-1,0,800.76)" d="M1366.33 291.3H1399.9619V443.11H1366.33Z" fill="#a9d18e" fill-rule="evenodd"/>
</g>
<g clip-path="url(#clip_157)">
<path transform="matrix(1,0,0,-1,0,800.76)" d="M1399.96 443.11 1411.17 454.32V302.51L1399.96 291.3Z" fill="#88a872" fill-rule="evenodd"/>
</g>
<g clip-path="url(#clip_158)">
<path transform="matrix(1,0,0,-1,0,800.76)" d="M1366.33 443.11 1377.54 454.32H1411.17L1399.96 443.11Z" fill="#badaa4" fill-rule="evenodd"/>
</g>
<g clip-path="url(#clip_159)">
<path transform="matrix(1,0,0,-1,0,800.76)" stroke-width="6" stroke-linecap="butt" stroke-miterlimit="10" stroke-linejoin="miter" fill="none" stroke="#2f528f" d="M1366.33 443.11 1377.54 454.32H1411.17V302.51L1399.96 291.3H1366.33ZM1366.33 443.11H1399.96L1411.17 454.32M1399.96 443.11V291.3"/>
</g>
<g clip-path="url(#clip_160)">
<path transform="matrix(1,0,0,-1,0,800.76)" d="M1400.25 291.3H1433.882V443.11H1400.25Z" fill="#f4b183" fill-rule="evenodd"/>
</g>
<g clip-path="url(#clip_161)">
<path transform="matrix(1,0,0,-1,0,800.76)" d="M1433.89 443.11 1445.1 454.32V302.51L1433.89 291.3Z" fill="#c48e69" fill-rule="evenodd"/>
</g>
<g clip-path="url(#clip_162)">
<path transform="matrix(1,0,0,-1,0,800.76)" d="M1400.25 443.11 1411.47 454.32H1445.1L1433.89 443.11Z" fill="#f6c09b" fill-rule="evenodd"/>
</g>
<g clip-path="url(#clip_163)">
<path transform="matrix(1,0,0,-1,0,800.76)" stroke-width="6" stroke-linecap="butt" stroke-miterlimit="10" stroke-linejoin="miter" fill="none" stroke="#2f528f" d="M1400.25 443.11 1411.47 454.32H1445.1V302.51L1433.89 291.3H1400.25ZM1400.25 443.11H1433.89L1445.1 454.32M1433.89 443.11V291.3"/>
</g>
<g clip-path="url(#clip_164)">
<text xml:space="preserve" transform="matrix(-.000000044 -1 1 -.000000044 0 800.76)" font-size="32.04" font-family="Microsoft YaHei"><tspan y="1355.86" x="343.77995 355.53865 373.70533">res</tspan></text>
</g>
<g clip-path="url(#clip_165)">
<text xml:space="preserve" transform="matrix(-.000000044 -1 1 -.000000044 0 800.76)" font-size="32.04" font-family="Microsoft YaHei"><tspan y="1394.76" x="345.69996 357.45866 375.62535">ref</tspan></text>
</g>
<g clip-path="url(#clip_166)">
<text xml:space="preserve" transform="matrix(-.000000044 -1 1 -.000000044 0 800.76)" font-size="32.04" font-family="Microsoft YaHei"><tspan y="1429.61" x="344.25996 364.76557 373.2882">dis</tspan></text>
</g>
<g clip-path="url(#clip_167)">
<path transform="matrix(1,0,0,-1,0,800.76)" d="M1332.4 105.8H1366.032V257.61H1332.4Z" fill="#ffd966" fill-rule="evenodd"/>
</g>
<g clip-path="url(#clip_168)">
<path transform="matrix(1,0,0,-1,0,800.76)" d="M1366.04 257.61 1377.25 268.82V117.01L1366.04 105.8Z" fill="#cdae52" fill-rule="evenodd"/>
</g>
<g clip-path="url(#clip_169)">
<path transform="matrix(1,0,0,-1,0,800.76)" d="M1332.4 257.61 1343.61 268.82H1377.25L1366.04 257.61Z" fill="#ffe084" fill-rule="evenodd"/>
</g>
<g clip-path="url(#clip_170)">
<path transform="matrix(1,0,0,-1,0,800.76)" stroke-width="6" stroke-linecap="butt" stroke-miterlimit="10" stroke-linejoin="miter" fill="none" stroke="#2f528f" d="M1332.4 257.61 1343.61 268.82H1377.25V117.01L1366.04 105.8H1332.4ZM1332.4 257.61H1366.04L1377.25 268.82M1366.04 257.61V105.8"/>
</g>
<g clip-path="url(#clip_171)">
<path transform="matrix(1,0,0,-1,0,800.76)" d="M1366.33 105.8H1399.9619V257.61H1366.33Z" fill="#a9d18e" fill-rule="evenodd"/>
</g>
<g clip-path="url(#clip_172)">
<path transform="matrix(1,0,0,-1,0,800.76)" d="M1399.96 257.61 1411.17 268.82V117.01L1399.96 105.8Z" fill="#88a872" fill-rule="evenodd"/>
</g>
<g clip-path="url(#clip_173)">
<path transform="matrix(1,0,0,-1,0,800.76)" d="M1366.33 257.61 1377.54 268.82H1411.17L1399.96 257.61Z" fill="#badaa4" fill-rule="evenodd"/>
</g>
<g clip-path="url(#clip_174)">
<path transform="matrix(1,0,0,-1,0,800.76)" stroke-width="6" stroke-linecap="butt" stroke-miterlimit="10" stroke-linejoin="miter" fill="none" stroke="#2f528f" d="M1366.33 257.61 1377.54 268.82H1411.17V117.01L1399.96 105.8H1366.33ZM1366.33 257.61H1399.96L1411.17 268.82M1399.96 257.61V105.8"/>
</g>
<g clip-path="url(#clip_175)">
<path transform="matrix(1,0,0,-1,0,800.76)" d="M1400.25 105.8H1433.882V257.61H1400.25Z" fill="#f4b183" fill-rule="evenodd"/>
</g>
<g clip-path="url(#clip_176)">
<path transform="matrix(1,0,0,-1,0,800.76)" d="M1433.89 257.61 1445.1 268.82V117.01L1433.89 105.8Z" fill="#c48e69" fill-rule="evenodd"/>
</g>
<g clip-path="url(#clip_177)">
<path transform="matrix(1,0,0,-1,0,800.76)" d="M1400.25 257.61 1411.47 268.82H1445.1L1433.89 257.61Z" fill="#f6c09b" fill-rule="evenodd"/>
</g>
<g clip-path="url(#clip_178)">
<path transform="matrix(1,0,0,-1,0,800.76)" stroke-width="6" stroke-linecap="butt" stroke-miterlimit="10" stroke-linejoin="miter" fill="none" stroke="#2f528f" d="M1400.25 257.61 1411.47 268.82H1445.1V117.01L1433.89 105.8H1400.25ZM1400.25 257.61H1433.89L1445.1 268.82M1433.89 257.61V105.8"/>
</g>
<g clip-path="url(#clip_179)">
<text xml:space="preserve" transform="matrix(-.000000044 -1 1 -.000000044 0 800.76)" font-size="32.04" font-family="Microsoft YaHei"><tspan y="1355.86" x="158.25994 170.01862 188.1853">res</tspan></text>
</g>
<g clip-path="url(#clip_180)">
<text xml:space="preserve" transform="matrix(-.000000044 -1 1 -.000000044 0 800.76)" font-size="32.04" font-family="Microsoft YaHei"><tspan y="1394.76" x="160.17993 171.93862 190.1053">ref</tspan></text>
</g>
<g clip-path="url(#clip_181)">
<text xml:space="preserve" transform="matrix(-.000000044 -1 1 -.000000044 0 800.76)" font-size="32.04" font-family="Microsoft YaHei"><tspan y="1429.61" x="158.73995 179.24555 187.76819">dis</tspan></text>
</g>
<g clip-path="url(#clip_182)">
<path transform="matrix(1,0,0,-1,0,800.76)" d="M337.29 64.518C337.29 81.217 350.83 94.754 367.53 94.754 384.23 94.754 397.76 81.217 397.76 64.518 397.76 47.819 384.23 34.282 367.53 34.282 350.83 34.282 337.29 47.819 337.29 64.518Z" fill="#dae3f3" fill-rule="evenodd"/>
</g>
<g clip-path="url(#clip_183)">
<path transform="matrix(1,0,0,-1,0,800.76)" stroke-width="6" stroke-linecap="butt" stroke-miterlimit="10" stroke-linejoin="miter" fill="none" stroke="#2f528f" d="M337.29 64.518C337.29 81.217 350.83 94.754 367.53 94.754 384.23 94.754 397.76 81.217 397.76 64.518 397.76 47.819 384.23 34.282 367.53 34.282 350.83 34.282 337.29 47.819 337.29 64.518Z"/>
</g>
<g clip-path="url(#clip_184)">
<text xml:space="preserve" transform="matrix(1 0 -0 1 0 800.76)" font-size="60.024" font-family="Calibri" font-weight="bold"><tspan y="-44.256" x="351.67">C</tspan></text>
</g>
<g clip-path="url(#clip_185)">
<path transform="matrix(1,0,0,-1,0,800.76)" d="M756.89 64.518C756.89 81.217 770.42 94.754 787.12 94.754 803.82 94.754 817.36 81.217 817.36 64.518 817.36 47.819 803.82 34.282 787.12 34.282 770.42 34.282 756.89 47.819 756.89 64.518Z" fill="#dae3f3" fill-rule="evenodd"/>
</g>
<g clip-path="url(#clip_186)">
<path transform="matrix(1,0,0,-1,0,800.76)" stroke-width="6" stroke-linecap="butt" stroke-miterlimit="10" stroke-linejoin="miter" fill="none" stroke="#2f528f" d="M756.89 64.518C756.89 81.217 770.42 94.754 787.12 94.754 803.82 94.754 817.36 81.217 817.36 64.518 817.36 47.819 803.82 34.282 787.12 34.282 770.42 34.282 756.89 47.819 756.89 64.518Z"/>
</g>
<g clip-path="url(#clip_187)">
<text xml:space="preserve" transform="matrix(1 0 -0 1 0 800.76)" font-size="96.024" font-family="Calibri" font-weight="bold"><tspan y="-32.136" x="772.46">-</tspan></text>
</g>
<g clip-path="url(#clip_188)">
<path transform="matrix(1,0,0,-1,0,800.76)" d="M1137.13 66.06C1137.13 82.759 1150.67 96.296 1167.37 96.296 1184.07 96.296 1197.6 82.759 1197.6 66.06 1197.6 49.361 1184.07 35.824 1167.37 35.824 1150.67 35.824 1137.13 49.361 1137.13 66.06Z" fill="#dae3f3" fill-rule="evenodd"/>
</g>
<g clip-path="url(#clip_189)">
<path transform="matrix(1,0,0,-1,0,800.76)" stroke-width="6" stroke-linecap="butt" stroke-miterlimit="10" stroke-linejoin="miter" fill="none" stroke="#2f528f" d="M1137.13 66.06C1137.13 82.759 1150.67 96.296 1167.37 96.296 1184.07 96.296 1197.6 82.759 1197.6 66.06 1197.6 49.361 1184.07 35.824 1167.37 35.824 1150.67 35.824 1137.13 49.361 1137.13 66.06Z"/>
</g>
<g clip-path="url(#clip_190)">
<text xml:space="preserve" transform="matrix(1 0 -0 1 0 800.76)" font-size="60" font-family="Calibri" font-weight="bold"><tspan y="-45.792" x="1149.24">A</tspan></text>
</g>
<g clip-path="url(#clip_191)">
<text xml:space="preserve" transform="matrix(1 0 -0 1 0 800.76)" font-size="44.04" font-family="Microsoft YaHei"><tspan y="-49.872" x="419.42 441.48408 469.4935 496.62214 518.68618 543.0403 559.1149 584.08566 611.2143 635.5684 651.64309">concatenate</tspan></text>
</g>
<g clip-path="url(#clip_192)">
<text xml:space="preserve" transform="matrix(1 0 -0 1 0 800.76)" font-size="44.04" font-family="Microsoft YaHei"><tspan y="-49.872" x="844.27 872.4556 884.1703 899.45217 914.734 939.7047 955.86746 980.83816 1007.9668 1030.0309">difference</tspan></text>
</g>
<g clip-path="url(#clip_193)">
<text xml:space="preserve" transform="matrix(1 0 -0 1 0 800.76)" font-size="44.04" font-family="Microsoft YaHei"><tspan y="-49.872" x="1228.42 1252.7742 1275.719 1300.6897 1317.513 1341.8671 1370.0526">average</tspan></text>
</g>
</g>
</svg>
