<?xml version="1.0" encoding="UTF-8" standalone="no"?>
<svg
   xmlns:dc="http://purl.org/dc/elements/1.1/"
   xmlns:cc="http://creativecommons.org/ns#"
   xmlns:rdf="http://www.w3.org/1999/02/22-rdf-syntax-ns#"
   xmlns:svg="http://www.w3.org/2000/svg"
   xmlns="http://www.w3.org/2000/svg"
   viewBox="0 0 1023.3147 449.81067"
   height="449.81067"
   width="1023.3147"
   xml:space="preserve"
   id="svg2"
   version="1.1"><metadata
     id="metadata8"><rdf:RDF><cc:Work
         rdf:about=""><dc:format>image/svg+xml</dc:format><dc:type
           rdf:resource="http://purl.org/dc/dcmitype/StillImage" /></cc:Work></rdf:RDF></metadata><defs
     id="defs6"><clipPath
       id="clipPath14"
       clipPathUnits="userSpaceOnUse"><path
         id="path12"
         d="M 0,0 H 1296 V 1296 H 0 Z" /></clipPath><clipPath
       id="clipPath22"
       clipPathUnits="userSpaceOnUse"><path
         id="path20"
         d="M 0,1296 H 1296 V 0 H 0 Z" /></clipPath></defs><g
     clip-path="url(#clipPath14)"
     transform="matrix(1.3333333,0,0,-1.3333333,-352.352,1088.8947)"
     id="g10"><g
       id="g16"><g
         clip-path="url(#clipPath22)"
         id="g18"><path
           id="path24"
           style="fill:#5e5b5b;fill-opacity:1;fill-rule:nonzero;stroke:none"
           d="m 593.811,751.234 c -5.78,0 -10.723,1.773 -14.83,5.324 -4.106,3.548 -6.159,8.567 -6.159,15.057 0,5.881 2.103,10.723 6.312,14.526 4.206,3.802 9.099,5.704 14.677,5.704 5.374,0 10.138,-1.726 14.297,-5.172 4.157,-3.448 6.236,-8.467 6.236,-15.058 0,-6.387 -2.03,-11.383 -6.084,-14.98 -4.056,-3.601 -8.874,-5.401 -14.449,-5.401" /><path
           id="path26"
           style="fill:#5e5b5b;fill-opacity:1;fill-rule:nonzero;stroke:none"
           d="m 578.525,569.631 c -3.802,4.359 -5.703,10.595 -5.703,18.709 v 118.786 c 0,8.214 1.901,14.397 5.703,18.556 2.992,3.27 6.701,5.235 11.104,5.933 h -57.164 c 3.747,-0.639 7.04,-2.307 9.87,-5.02 3.701,-3.551 5.552,-7.657 5.552,-12.32 0,-1.825 -0.331,-3.955 -0.989,-6.388 -0.661,-2.433 -1.421,-4.715 -2.281,-6.845 -0.863,-2.128 -1.851,-4.563 -2.967,-7.3 L 501.801,594.88 c -1.116,-2.84 -2.561,-6.441 -4.334,-10.8 -1.776,-4.36 -3.753,-8.087 -5.932,-11.179 -2.182,-3.093 -4.867,-5.501 -8.061,-7.223 -0.738,-0.399 -1.521,-0.74 -2.331,-1.045 h 104.193 c -2.572,1.088 -4.847,2.748 -6.811,4.998 m -62.122,157.345 c 2.061,2.479 4.928,4.025 8.598,4.639 H 419.629 c 4.639,-0.679 7.986,-2.544 10.003,-5.628 2.585,-3.955 5.449,-10.597 8.593,-19.924 l 33.613,-94.301 36.2,98.407 c 2.837,7.909 5.627,13.51 8.365,16.807" /><path
           id="path28"
           style="fill:#d4d3d3;fill-opacity:1;fill-rule:nonzero;stroke:none"
           d="m 307.354,646.592 c 0,-16.528 3.776,-29.229 11.33,-38.1 7.553,-8.874 17.465,-13.308 29.735,-13.308 10.443,0 19.442,4.537 26.998,13.613 7.552,9.073 11.33,22.077 11.33,39.012 0,10.951 -1.573,20.381 -4.714,28.29 -3.145,7.909 -7.605,14.017 -13.386,18.328 -5.778,4.308 -12.523,6.464 -20.228,6.464 -7.909,0 -14.958,-2.156 -21.141,-6.464 -6.186,-4.311 -11.053,-10.547 -14.602,-18.708 -3.55,-8.163 -5.322,-17.871 -5.322,-29.127 m -1.978,123.351 v -63.424 c 7.807,8.11 15.766,14.32 23.879,18.631 8.111,4.308 18.149,6.465 30.115,6.465 13.789,0 25.88,-3.27 36.275,-9.811 10.393,-6.54 18.454,-16.023 24.184,-28.442 5.727,-12.422 8.592,-27.149 8.592,-44.184 0,-12.574 -1.596,-24.108 -4.79,-34.602 -3.194,-10.494 -7.833,-19.597 -13.917,-27.301 -6.084,-7.707 -13.461,-13.665 -22.13,-17.871 -8.67,-4.207 -18.228,-6.312 -28.67,-6.312 -6.389,0 -12.396,0.76 -18.024,2.281 -5.627,1.521 -10.418,3.522 -14.373,6.008 -3.954,2.483 -7.327,5.043 -10.114,7.681 -2.79,2.635 -6.465,6.59 -11.027,11.863 v -4.107 c 0,-7.808 -1.877,-13.714 -5.628,-17.718 -3.752,-4.005 -8.517,-6.008 -14.297,-6.008 -5.881,0 -10.57,2.003 -14.069,6.008 -3.498,4.004 -5.247,9.91 -5.247,17.718 v 181.3 c 0,8.415 1.697,14.777 5.095,19.088 3.396,4.308 8.137,6.464 14.221,6.464 6.388,0 11.306,-2.054 14.754,-6.16 3.446,-4.107 5.171,-9.963 5.171,-17.567" /><path
           id="path30"
           style="fill:#d4d3d3;fill-opacity:1;fill-rule:nonzero;stroke:none"
           d="m 507.254,516.088 h -5.884 v -8.151 h 6.075 c 3.822,0 5.732,1.377 5.732,4.132 0,1.41 -0.495,2.431 -1.485,3.067 -0.99,0.635 -2.47,0.952 -4.438,0.952 m -5.884,11.274 v -7.218 h 5.18 c 1.409,0 2.498,0.133 3.266,0.4 0.768,0.267 1.355,0.774 1.762,1.523 0.317,0.534 0.476,1.13 0.476,1.79 0,1.41 -0.502,2.346 -1.505,2.81 -1.003,0.463 -2.533,0.695 -4.59,0.695 z m 6.303,-23.673 h -8.531 c -1.232,0 -2.111,0.277 -2.638,0.829 -0.527,0.552 -0.791,1.431 -0.791,2.637 v 20.988 c 0,1.231 0.27,2.117 0.81,2.657 0.54,0.539 1.412,0.808 2.619,0.808 h 9.046 c 1.333,0 2.488,-0.082 3.466,-0.247 0.977,-0.165 1.853,-0.482 2.628,-0.952 0.66,-0.393 1.244,-0.891 1.752,-1.495 0.508,-0.603 0.895,-1.269 1.162,-2 0.266,-0.729 0.4,-1.501 0.4,-2.313 0,-2.793 -1.397,-4.838 -4.19,-6.133 3.669,-1.168 5.504,-3.441 5.504,-6.818 0,-1.561 -0.4,-2.967 -1.2,-4.218 -0.8,-1.251 -1.879,-2.174 -3.238,-2.771 -0.85,-0.355 -1.828,-0.606 -2.932,-0.753 -1.105,-0.145 -2.394,-0.219 -3.867,-0.219" /><path
           id="path32"
           style="fill:#d4d3d3;fill-opacity:1;fill-rule:nonzero;stroke:none"
           d="m 534.641,527.362 h -5.219 v -7.675 h 5.066 c 1.359,0 2.501,0.118 3.428,0.352 0.927,0.235 1.635,0.635 2.124,1.2 0.488,0.565 0.733,1.343 0.733,2.333 0,0.775 -0.197,1.457 -0.59,2.047 -0.394,0.591 -0.94,1.032 -1.638,1.324 -0.661,0.28 -1.962,0.419 -3.904,0.419 m -3.238,-11.731 h -1.981 v -8.971 c 0,-1.181 -0.26,-2.05 -0.78,-2.608 -0.521,-0.56 -1.2,-0.839 -2.038,-0.839 -0.902,0 -1.6,0.292 -2.095,0.877 -0.495,0.584 -0.743,1.44 -0.743,2.57 v 21.483 c 0,1.218 0.273,2.101 0.819,2.647 0.546,0.546 1.428,0.818 2.647,0.818 h 9.199 c 1.269,0 2.355,-0.053 3.257,-0.161 0.901,-0.108 1.713,-0.327 2.437,-0.657 0.876,-0.368 1.65,-0.895 2.324,-1.581 0.673,-0.686 1.183,-1.482 1.532,-2.39 0.35,-0.908 0.524,-1.87 0.524,-2.885 0,-2.082 -0.587,-3.746 -1.761,-4.99 -1.175,-1.244 -2.955,-2.127 -5.342,-2.647 1.003,-0.533 1.961,-1.32 2.875,-2.361 0.914,-1.041 1.73,-2.15 2.448,-3.324 0.717,-1.174 1.275,-2.234 1.675,-3.18 0.401,-0.946 0.6,-1.597 0.6,-1.953 0,-0.368 -0.117,-0.733 -0.352,-1.094 -0.235,-0.363 -0.555,-0.648 -0.961,-0.858 -0.407,-0.209 -0.876,-0.314 -1.41,-0.314 -0.635,0 -1.168,0.149 -1.6,0.448 -0.431,0.298 -0.802,0.676 -1.114,1.133 -0.311,0.457 -0.733,1.13 -1.266,2.019 l -2.267,3.771 c -0.812,1.384 -1.539,2.437 -2.18,3.161 -0.642,0.724 -1.292,1.219 -1.952,1.485 -0.66,0.267 -1.492,0.401 -2.495,0.401" /><path
           id="path34"
           style="fill:#d4d3d3;fill-opacity:1;fill-rule:nonzero;stroke:none"
           d="m 552.085,506.66 v 21.997 c 0,1.143 0.261,1.999 0.781,2.571 0.521,0.571 1.194,0.857 2.019,0.857 0.851,0 1.539,-0.282 2.066,-0.848 0.527,-0.564 0.791,-1.424 0.791,-2.58 V 506.66 c 0,-1.155 -0.264,-2.018 -0.791,-2.59 -0.527,-0.571 -1.215,-0.857 -2.066,-0.857 -0.813,0 -1.482,0.289 -2.009,0.867 -0.527,0.577 -0.791,1.438 -0.791,2.58" /><path
           id="path36"
           style="fill:#d4d3d3;fill-opacity:1;fill-rule:nonzero;stroke:none"
           d="m 585.28,512.069 c 0,-1.688 -0.435,-3.206 -1.304,-4.551 -0.87,-1.346 -2.143,-2.4 -3.819,-3.162 -1.676,-0.762 -3.663,-1.143 -5.961,-1.143 -2.755,0 -5.028,0.521 -6.818,1.562 -1.27,0.749 -2.301,1.748 -3.094,2.999 -0.794,1.251 -1.191,2.467 -1.191,3.648 0,0.685 0.238,1.272 0.715,1.762 0.476,0.488 1.082,0.732 1.818,0.732 0.597,0 1.102,-0.19 1.514,-0.571 0.413,-0.381 0.765,-0.946 1.057,-1.695 0.356,-0.888 0.74,-1.631 1.153,-2.228 0.412,-0.597 0.993,-1.089 1.742,-1.476 0.749,-0.387 1.733,-0.581 2.952,-0.581 1.676,0 3.038,0.391 4.085,1.171 1.047,0.781 1.571,1.756 1.571,2.924 0,0.927 -0.283,1.679 -0.847,2.257 -0.565,0.577 -1.295,1.018 -2.19,1.323 -0.895,0.305 -2.092,0.629 -3.59,0.972 -2.007,0.469 -3.685,1.018 -5.038,1.646 -1.352,0.629 -2.425,1.487 -3.218,2.571 -0.794,1.086 -1.191,2.435 -1.191,4.047 0,1.537 0.419,2.902 1.257,4.095 0.838,1.193 2.051,2.111 3.638,2.752 1.587,0.642 3.454,0.962 5.599,0.962 1.714,0 3.196,-0.213 4.447,-0.638 1.25,-0.426 2.288,-0.99 3.114,-1.695 0.825,-0.705 1.428,-1.444 1.809,-2.219 0.381,-0.774 0.572,-1.53 0.572,-2.266 0,-0.673 -0.239,-1.279 -0.715,-1.819 -0.476,-0.54 -1.07,-0.809 -1.781,-0.809 -0.647,0 -1.139,0.162 -1.476,0.485 -0.336,0.324 -0.701,0.855 -1.094,1.591 -0.508,1.054 -1.118,1.876 -1.829,2.466 -0.711,0.59 -1.854,0.885 -3.428,0.885 -1.46,0 -2.637,-0.32 -3.532,-0.962 -0.895,-0.64 -1.343,-1.412 -1.343,-2.313 0,-0.559 0.152,-1.041 0.457,-1.447 0.304,-0.406 0.723,-0.756 1.257,-1.048 0.533,-0.292 1.072,-0.521 1.618,-0.686 0.547,-0.165 1.448,-0.406 2.705,-0.723 1.574,-0.368 2.999,-0.775 4.275,-1.219 1.276,-0.444 2.362,-0.984 3.257,-1.619 0.895,-0.635 1.593,-1.438 2.095,-2.409 0.501,-0.971 0.752,-2.161 0.752,-3.571" /><path
           id="path38"
           style="fill:#d4d3d3;fill-opacity:1;fill-rule:nonzero;stroke:none"
           d="m 608.21,526.943 h -6.17 V 506.66 c 0,-1.168 -0.261,-2.034 -0.781,-2.599 -0.521,-0.565 -1.194,-0.848 -2.019,-0.848 -0.838,0 -1.52,0.286 -2.048,0.857 -0.526,0.572 -0.79,1.435 -0.79,2.59 v 20.283 h -6.17 c -0.965,0 -1.683,0.212 -2.152,0.638 -0.47,0.425 -0.705,0.987 -0.705,1.686 0,0.723 0.245,1.295 0.733,1.713 0.489,0.419 1.197,0.628 2.124,0.628 h 17.978 c 0.978,0 1.705,-0.215 2.181,-0.647 0.476,-0.432 0.713,-0.996 0.713,-1.694 0,-0.699 -0.241,-1.261 -0.723,-1.686 -0.483,-0.426 -1.206,-0.638 -2.171,-0.638" /><path
           id="path40"
           style="fill:#d4d3d3;fill-opacity:1;fill-rule:nonzero;stroke:none"
           d="m 634.263,517.726 c 0,2.044 -0.33,3.815 -0.991,5.313 -0.66,1.498 -1.602,2.631 -2.828,3.399 -1.225,0.768 -2.631,1.153 -4.218,1.153 -1.13,0 -2.174,-0.213 -3.133,-0.639 -0.958,-0.425 -1.783,-1.044 -2.475,-1.856 -0.692,-0.813 -1.239,-1.851 -1.639,-3.115 -0.399,-1.262 -0.599,-2.681 -0.599,-4.255 0,-1.587 0.2,-3.023 0.599,-4.305 0.4,-1.282 0.965,-2.346 1.696,-3.19 0.73,-0.844 1.568,-1.476 2.513,-1.895 0.946,-0.419 1.984,-0.628 3.114,-0.628 1.448,0 2.778,0.361 3.99,1.085 1.213,0.725 2.178,1.842 2.895,3.353 0.717,1.51 1.076,3.371 1.076,5.58 m -8.037,14.359 c 2.895,0 5.38,-0.587 7.456,-1.762 2.076,-1.175 3.647,-2.844 4.713,-5.009 1.066,-2.165 1.6,-4.707 1.6,-7.626 0,-2.159 -0.292,-4.121 -0.876,-5.885 -0.584,-1.765 -1.461,-3.295 -2.628,-4.59 -1.168,-1.295 -2.603,-2.285 -4.304,-2.971 -1.701,-0.686 -3.65,-1.029 -5.847,-1.029 -2.183,0 -4.139,0.352 -5.865,1.058 -1.727,0.704 -3.168,1.698 -4.324,2.98 -1.155,1.282 -2.028,2.825 -2.618,4.628 -0.591,1.803 -0.886,3.752 -0.886,5.847 0,2.145 0.308,4.113 0.924,5.903 0.616,1.79 1.508,3.314 2.676,4.571 1.168,1.257 2.59,2.219 4.266,2.885 1.675,0.667 3.58,1 5.713,1" /><path
           id="path42"
           style="fill:#d4d3d3;fill-opacity:1;fill-rule:nonzero;stroke:none"
           d="m 650.374,528.657 v -20.321 h 11.465 c 0.914,0 1.615,-0.222 2.104,-0.666 0.489,-0.444 0.734,-1.003 0.734,-1.676 0,-0.685 -0.241,-1.241 -0.724,-1.667 -0.482,-0.425 -1.187,-0.638 -2.114,-0.638 h -13.655 c -1.232,0 -2.118,0.274 -2.657,0.82 -0.54,0.546 -0.809,1.428 -0.809,2.646 v 21.502 c 0,1.143 0.257,1.999 0.771,2.571 0.514,0.571 1.191,0.857 2.029,0.857 0.85,0 1.539,-0.282 2.066,-0.848 0.526,-0.564 0.79,-1.424 0.79,-2.58" /><path
           id="path44"
           style="fill:#5e5b5b;fill-opacity:1;fill-rule:nonzero;stroke:none"
           d="m 682.273,528.371 6.324,-18.721 6.341,18.855 c 0.331,0.99 0.578,1.679 0.743,2.066 0.165,0.387 0.438,0.737 0.819,1.047 0.381,0.312 0.901,0.467 1.562,0.467 0.482,0 0.929,-0.12 1.342,-0.362 0.412,-0.242 0.737,-0.562 0.972,-0.961 0.234,-0.401 0.352,-0.804 0.352,-1.21 0,-0.28 -0.039,-0.581 -0.115,-0.905 -0.076,-0.324 -0.171,-0.641 -0.285,-0.952 -0.114,-0.311 -0.228,-0.632 -0.343,-0.962 l -6.76,-18.245 c -0.242,-0.698 -0.483,-1.361 -0.724,-1.99 -0.241,-0.628 -0.521,-1.181 -0.838,-1.656 -0.317,-0.477 -0.74,-0.866 -1.267,-1.172 -0.527,-0.305 -1.171,-0.457 -1.933,-0.457 -0.762,0 -1.406,0.149 -1.933,0.448 -0.527,0.298 -0.952,0.692 -1.276,1.181 -0.323,0.488 -0.607,1.044 -0.848,1.666 -0.241,0.622 -0.482,1.282 -0.723,1.98 l -6.647,18.093 c -0.114,0.33 -0.231,0.654 -0.352,0.972 -0.121,0.317 -0.222,0.66 -0.305,1.028 -0.082,0.368 -0.123,0.679 -0.123,0.933 0,0.647 0.26,1.238 0.78,1.771 0.521,0.533 1.175,0.8 1.962,0.8 0.965,0 1.648,-0.295 2.047,-0.886 0.4,-0.59 0.809,-1.533 1.228,-2.828" /><path
           id="path46"
           style="fill:#5e5b5b;fill-opacity:1;fill-rule:nonzero;stroke:none"
           d="m 705.203,506.66 v 21.997 c 0,1.143 0.261,1.999 0.781,2.571 0.521,0.571 1.194,0.857 2.019,0.857 0.851,0 1.539,-0.282 2.066,-0.848 0.527,-0.564 0.79,-1.424 0.79,-2.58 V 506.66 c 0,-1.155 -0.263,-2.018 -0.79,-2.59 -0.527,-0.571 -1.215,-0.857 -2.066,-0.857 -0.813,0 -1.482,0.289 -2.009,0.867 -0.527,0.577 -0.791,1.438 -0.791,2.58" /><path
           id="path48"
           style="fill:#5e5b5b;fill-opacity:1;fill-rule:nonzero;stroke:none"
           d="m 738.398,512.069 c 0,-1.688 -0.435,-3.206 -1.304,-4.551 -0.87,-1.346 -2.143,-2.4 -3.819,-3.162 -1.675,-0.762 -3.663,-1.143 -5.961,-1.143 -2.755,0 -5.028,0.521 -6.818,1.562 -1.269,0.749 -2.301,1.748 -3.095,2.999 -0.794,1.251 -1.19,2.467 -1.19,3.648 0,0.685 0.238,1.272 0.715,1.762 0.475,0.488 1.082,0.732 1.818,0.732 0.597,0 1.102,-0.19 1.514,-0.571 0.413,-0.381 0.765,-0.946 1.057,-1.695 0.356,-0.888 0.74,-1.631 1.152,-2.228 0.413,-0.597 0.994,-1.089 1.743,-1.476 0.749,-0.387 1.733,-0.581 2.952,-0.581 1.676,0 3.037,0.391 4.085,1.171 1.047,0.781 1.571,1.756 1.571,2.924 0,0.927 -0.283,1.679 -0.847,2.257 -0.566,0.577 -1.295,1.018 -2.191,1.323 -0.894,0.305 -2.092,0.629 -3.59,0.972 -2.005,0.469 -3.684,1.018 -5.037,1.646 -1.352,0.629 -2.424,1.487 -3.218,2.571 -0.793,1.086 -1.191,2.435 -1.191,4.047 0,1.537 0.419,2.902 1.257,4.095 0.838,1.193 2.051,2.111 3.638,2.752 1.587,0.642 3.453,0.962 5.599,0.962 1.714,0 3.197,-0.213 4.447,-0.638 1.251,-0.426 2.289,-0.99 3.114,-1.695 0.825,-0.705 1.428,-1.444 1.808,-2.219 0.382,-0.774 0.573,-1.53 0.573,-2.266 0,-0.673 -0.239,-1.279 -0.715,-1.819 -0.476,-0.54 -1.069,-0.809 -1.78,-0.809 -0.648,0 -1.14,0.162 -1.477,0.485 -0.336,0.324 -0.701,0.855 -1.095,1.591 -0.508,1.054 -1.117,1.876 -1.828,2.466 -0.711,0.59 -1.853,0.885 -3.428,0.885 -1.46,0 -2.637,-0.32 -3.533,-0.962 -0.894,-0.64 -1.343,-1.412 -1.343,-2.313 0,-0.559 0.153,-1.041 0.457,-1.447 0.305,-0.406 0.724,-0.756 1.257,-1.048 0.534,-0.292 1.074,-0.521 1.619,-0.686 0.546,-0.165 1.448,-0.406 2.705,-0.723 1.574,-0.368 3,-0.775 4.275,-1.219 1.276,-0.444 2.362,-0.984 3.257,-1.619 0.895,-0.635 1.594,-1.438 2.095,-2.409 0.501,-0.971 0.752,-2.161 0.752,-3.571" /><path
           id="path50"
           style="fill:#5e5b5b;fill-opacity:1;fill-rule:nonzero;stroke:none"
           d="m 743.426,506.66 v 21.997 c 0,1.143 0.261,1.999 0.781,2.571 0.521,0.571 1.193,0.857 2.019,0.857 0.85,0 1.539,-0.282 2.066,-0.848 0.526,-0.564 0.79,-1.424 0.79,-2.58 V 506.66 c 0,-1.155 -0.264,-2.018 -0.79,-2.59 -0.527,-0.571 -1.216,-0.857 -2.066,-0.857 -0.813,0 -1.483,0.289 -2.01,0.867 -0.527,0.577 -0.79,1.438 -0.79,2.58" /><path
           id="path52"
           style="fill:#5e5b5b;fill-opacity:1;fill-rule:nonzero;stroke:none"
           d="m 775.726,517.726 c 0,2.044 -0.33,3.815 -0.991,5.313 -0.66,1.498 -1.602,2.631 -2.828,3.399 -1.225,0.768 -2.632,1.153 -4.219,1.153 -1.129,0 -2.173,-0.213 -3.132,-0.639 -0.958,-0.425 -1.784,-1.044 -2.476,-1.856 -0.692,-0.813 -1.238,-1.851 -1.638,-3.115 -0.4,-1.262 -0.599,-2.681 -0.599,-4.255 0,-1.587 0.199,-3.023 0.599,-4.305 0.4,-1.282 0.965,-2.346 1.695,-3.19 0.73,-0.844 1.568,-1.476 2.514,-1.895 0.946,-0.419 1.984,-0.628 3.114,-0.628 1.447,0 2.777,0.361 3.99,1.085 1.212,0.725 2.178,1.842 2.894,3.353 0.718,1.51 1.077,3.371 1.077,5.58 m -8.038,14.359 c 2.896,0 5.38,-0.587 7.457,-1.762 2.076,-1.175 3.647,-2.844 4.713,-5.009 1.067,-2.165 1.6,-4.707 1.6,-7.626 0,-2.159 -0.292,-4.121 -0.876,-5.885 -0.584,-1.765 -1.46,-3.295 -2.628,-4.59 -1.168,-1.295 -2.603,-2.285 -4.305,-2.971 -1.701,-0.686 -3.649,-1.029 -5.846,-1.029 -2.184,0 -4.139,0.352 -5.865,1.058 -1.727,0.704 -3.168,1.698 -4.324,2.98 -1.155,1.282 -2.028,2.825 -2.619,4.628 -0.59,1.803 -0.885,3.752 -0.885,5.847 0,2.145 0.308,4.113 0.923,5.903 0.616,1.79 1.508,3.314 2.676,4.571 1.168,1.257 2.591,2.219 4.267,2.885 1.675,0.667 3.58,1 5.712,1" /><path
           id="path54"
           style="fill:#5e5b5b;fill-opacity:1;fill-rule:nonzero;stroke:none"
           d="M 793.666,528.695 804.54,512.24 v 16.608 c 0,1.079 0.231,1.888 0.695,2.427 0.463,0.54 1.089,0.81 1.876,0.81 0.813,0 1.453,-0.27 1.923,-0.81 0.47,-0.539 0.705,-1.348 0.705,-2.427 v -21.959 c 0,-2.451 -1.015,-3.676 -3.047,-3.676 -0.507,0 -0.964,0.073 -1.371,0.22 -0.406,0.145 -0.787,0.378 -1.143,0.695 -0.356,0.317 -0.686,0.688 -0.99,1.113 -0.305,0.426 -0.61,0.861 -0.915,1.305 l -10.607,16.265 v -16.36 c 0,-1.066 -0.248,-1.873 -0.743,-2.419 -0.495,-0.546 -1.13,-0.819 -1.904,-0.819 -0.8,0 -1.441,0.276 -1.923,0.829 -0.484,0.552 -0.725,1.355 -0.725,2.409 v 21.539 c 0,0.914 0.102,1.632 0.305,2.153 0.242,0.571 0.641,1.038 1.2,1.399 0.559,0.362 1.162,0.543 1.81,0.543 0.507,0 0.942,-0.083 1.304,-0.247 0.362,-0.166 0.679,-0.388 0.952,-0.667 0.273,-0.279 0.552,-0.642 0.838,-1.086 0.285,-0.444 0.581,-0.907 0.886,-1.39" /><path
           id="path56"
           style="fill:#5e5b5b;fill-opacity:1;fill-rule:nonzero;stroke:none"
           d="m 825.908,506.66 v 21.997 c 0,1.143 0.26,1.999 0.781,2.571 0.521,0.571 1.194,0.857 2.019,0.857 0.851,0 1.539,-0.282 2.066,-0.848 0.527,-0.564 0.79,-1.424 0.79,-2.58 V 506.66 c 0,-1.155 -0.263,-2.018 -0.79,-2.59 -0.527,-0.571 -1.215,-0.857 -2.066,-0.857 -0.812,0 -1.482,0.289 -2.01,0.867 -0.526,0.577 -0.79,1.438 -0.79,2.58" /><path
           id="path58"
           style="fill:#5e5b5b;fill-opacity:1;fill-rule:nonzero;stroke:none"
           d="m 845.258,528.695 10.874,-16.455 v 16.608 c 0,1.079 0.231,1.888 0.695,2.427 0.463,0.54 1.089,0.81 1.876,0.81 0.813,0 1.453,-0.27 1.924,-0.81 0.47,-0.539 0.704,-1.348 0.704,-2.427 v -21.959 c 0,-2.451 -1.016,-3.676 -3.047,-3.676 -0.508,0 -0.965,0.073 -1.371,0.22 -0.406,0.145 -0.787,0.378 -1.142,0.695 -0.356,0.317 -0.687,0.688 -0.992,1.113 -0.304,0.426 -0.609,0.861 -0.914,1.305 l -10.607,16.265 v -16.36 c 0,-1.066 -0.248,-1.873 -0.743,-2.419 -0.495,-0.546 -1.13,-0.819 -1.905,-0.819 -0.799,0 -1.44,0.276 -1.922,0.829 -0.483,0.552 -0.725,1.355 -0.725,2.409 v 21.539 c 0,0.914 0.101,1.632 0.305,2.153 0.242,0.571 0.641,1.038 1.2,1.399 0.558,0.362 1.162,0.543 1.809,0.543 0.508,0 0.943,-0.083 1.305,-0.247 0.361,-0.166 0.679,-0.388 0.952,-0.667 0.273,-0.279 0.552,-0.642 0.838,-1.086 0.285,-0.444 0.581,-0.907 0.886,-1.39" /><path
           id="path60"
           style="fill:#5e5b5b;fill-opacity:1;fill-rule:nonzero;stroke:none"
           d="m 888.736,512.069 c 0,-1.688 -0.434,-3.206 -1.304,-4.551 -0.869,-1.346 -2.143,-2.4 -3.819,-3.162 -1.675,-0.762 -3.663,-1.143 -5.961,-1.143 -2.755,0 -5.027,0.521 -6.818,1.562 -1.27,0.749 -2.301,1.748 -3.095,2.999 -0.793,1.251 -1.189,2.467 -1.189,3.648 0,0.685 0.237,1.272 0.714,1.762 0.475,0.488 1.082,0.732 1.818,0.732 0.597,0 1.102,-0.19 1.515,-0.571 0.412,-0.381 0.764,-0.946 1.056,-1.695 0.356,-0.888 0.74,-1.631 1.153,-2.228 0.412,-0.597 0.993,-1.089 1.742,-1.476 0.749,-0.387 1.733,-0.581 2.952,-0.581 1.676,0 3.037,0.391 4.085,1.171 1.048,0.781 1.571,1.756 1.571,2.924 0,0.927 -0.282,1.679 -0.847,2.257 -0.565,0.577 -1.295,1.018 -2.19,1.323 -0.895,0.305 -2.092,0.629 -3.591,0.972 -2.006,0.469 -3.684,1.018 -5.037,1.646 -1.351,0.629 -2.425,1.487 -3.219,2.571 -0.793,1.086 -1.189,2.435 -1.189,4.047 0,1.537 0.419,2.902 1.257,4.095 0.838,1.193 2.05,2.111 3.637,2.752 1.587,0.642 3.454,0.962 5.599,0.962 1.714,0 3.196,-0.213 4.447,-0.638 1.25,-0.426 2.289,-0.99 3.114,-1.695 0.825,-0.705 1.428,-1.444 1.809,-2.219 0.381,-0.774 0.572,-1.53 0.572,-2.266 0,-0.673 -0.239,-1.279 -0.714,-1.819 -0.477,-0.54 -1.071,-0.809 -1.782,-0.809 -0.647,0 -1.139,0.162 -1.475,0.485 -0.337,0.324 -0.701,0.855 -1.096,1.591 -0.508,1.054 -1.117,1.876 -1.828,2.466 -0.711,0.59 -1.853,0.885 -3.428,0.885 -1.46,0 -2.637,-0.32 -3.533,-0.962 -0.894,-0.64 -1.342,-1.412 -1.342,-2.313 0,-0.559 0.153,-1.041 0.457,-1.447 0.305,-0.406 0.724,-0.756 1.257,-1.048 0.533,-0.292 1.072,-0.521 1.618,-0.686 0.546,-0.165 1.448,-0.406 2.705,-0.723 1.575,-0.368 2.999,-0.775 4.276,-1.219 1.275,-0.444 2.361,-0.984 3.256,-1.619 0.895,-0.635 1.593,-1.438 2.095,-2.409 0.501,-0.971 0.752,-2.161 0.752,-3.571" /><path
           id="path62"
           style="fill:#5e5b5b;fill-opacity:1;fill-rule:nonzero;stroke:none"
           d="m 911.666,526.943 h -6.17 V 506.66 c 0,-1.168 -0.261,-2.034 -0.781,-2.599 -0.521,-0.565 -1.194,-0.848 -2.019,-0.848 -0.838,0 -1.52,0.286 -2.048,0.857 -0.526,0.572 -0.79,1.435 -0.79,2.59 v 20.283 h -6.17 c -0.965,0 -1.682,0.212 -2.152,0.638 -0.47,0.425 -0.705,0.987 -0.705,1.686 0,0.723 0.244,1.295 0.733,1.713 0.49,0.419 1.197,0.628 2.124,0.628 h 17.978 c 0.978,0 1.704,-0.215 2.181,-0.647 0.475,-0.432 0.714,-0.996 0.714,-1.694 0,-0.699 -0.242,-1.261 -0.724,-1.686 -0.483,-0.426 -1.206,-0.638 -2.171,-0.638" /><path
           id="path64"
           style="fill:#5e5b5b;fill-opacity:1;fill-rule:nonzero;stroke:none"
           d="m 918.142,506.66 v 21.997 c 0,1.143 0.259,1.999 0.78,2.571 0.52,0.571 1.193,0.857 2.018,0.857 0.851,0 1.54,-0.282 2.067,-0.848 0.527,-0.564 0.791,-1.424 0.791,-2.58 V 506.66 c 0,-1.155 -0.264,-2.018 -0.791,-2.59 -0.527,-0.571 -1.216,-0.857 -2.067,-0.857 -0.812,0 -1.481,0.289 -2.008,0.867 -0.528,0.577 -0.79,1.438 -0.79,2.58" /><path
           id="path66"
           style="fill:#5e5b5b;fill-opacity:1;fill-rule:nonzero;stroke:none"
           d="M 948.251,526.943 H 942.08 V 506.66 c 0,-1.168 -0.26,-2.034 -0.78,-2.599 -0.521,-0.565 -1.194,-0.848 -2.019,-0.848 -0.839,0 -1.52,0.286 -2.048,0.857 -0.526,0.572 -0.79,1.435 -0.79,2.59 v 20.283 h -6.171 c -0.964,0 -1.681,0.212 -2.151,0.638 -0.471,0.425 -0.705,0.987 -0.705,1.686 0,0.723 0.244,1.295 0.733,1.713 0.489,0.419 1.197,0.628 2.123,0.628 h 17.979 c 0.978,0 1.704,-0.215 2.181,-0.647 0.475,-0.432 0.714,-0.996 0.714,-1.694 0,-0.699 -0.242,-1.261 -0.724,-1.686 -0.483,-0.426 -1.206,-0.638 -2.171,-0.638" /><path
           id="path68"
           style="fill:#5e5b5b;fill-opacity:1;fill-rule:nonzero;stroke:none"
           d="m 954.535,515.23 v 13.427 c 0,1.143 0.258,1.999 0.772,2.571 0.514,0.571 1.19,0.857 2.028,0.857 0.876,0 1.571,-0.286 2.085,-0.857 0.515,-0.572 0.771,-1.428 0.771,-2.571 v -13.731 c 0,-1.562 0.175,-2.866 0.525,-3.914 0.348,-1.047 0.968,-1.86 1.856,-2.438 0.889,-0.577 2.133,-0.866 3.733,-0.866 2.21,0 3.771,0.587 4.685,1.762 0.914,1.174 1.371,2.955 1.371,5.342 v 13.845 c 0,1.156 0.254,2.016 0.762,2.58 0.508,0.566 1.188,0.848 2.038,0.848 0.851,0 1.539,-0.282 2.067,-0.848 0.526,-0.564 0.79,-1.424 0.79,-2.58 V 515.23 c 0,-2.183 -0.213,-4.005 -0.638,-5.465 -0.426,-1.46 -1.229,-2.743 -2.409,-3.847 -1.016,-0.939 -2.198,-1.625 -3.543,-2.057 -1.346,-0.432 -2.92,-0.648 -4.723,-0.648 -2.145,0 -3.993,0.232 -5.542,0.695 -1.549,0.464 -2.812,1.181 -3.79,2.153 -0.977,0.971 -1.695,2.215 -2.152,3.732 -0.457,1.518 -0.686,3.33 -0.686,5.437" /><path
           id="path70"
           style="fill:#5e5b5b;fill-opacity:1;fill-rule:nonzero;stroke:none"
           d="m 1002.262,526.943 h -6.171 V 506.66 c 0,-1.168 -0.261,-2.034 -0.781,-2.599 -0.521,-0.565 -1.194,-0.848 -2.019,-0.848 -0.838,0 -1.52,0.286 -2.047,0.857 -0.527,0.572 -0.791,1.435 -0.791,2.59 v 20.283 h -6.17 c -0.965,0 -1.682,0.212 -2.152,0.638 -0.47,0.425 -0.704,0.987 -0.704,1.686 0,0.723 0.244,1.295 0.733,1.713 0.488,0.419 1.196,0.628 2.123,0.628 h 17.979 c 0.977,0 1.704,-0.215 2.179,-0.647 0.477,-0.432 0.715,-0.996 0.715,-1.694 0,-0.699 -0.241,-1.261 -0.723,-1.686 -0.483,-0.426 -1.206,-0.638 -2.171,-0.638" /><path
           id="path72"
           style="fill:#5e5b5b;fill-opacity:1;fill-rule:nonzero;stroke:none"
           d="m 1026.905,527.248 h -12.741 v -6.856 h 11.732 c 0.863,0 1.507,-0.194 1.933,-0.581 0.425,-0.387 0.638,-0.899 0.638,-1.534 0,-0.634 -0.21,-1.152 -0.629,-1.551 -0.419,-0.401 -1.067,-0.6 -1.942,-0.6 h -11.732 v -7.942 h 13.179 c 0.888,0 1.558,-0.206 2.01,-0.619 0.45,-0.413 0.675,-0.961 0.675,-1.647 0,-0.66 -0.225,-1.197 -0.675,-1.609 -0.452,-0.413 -1.122,-0.62 -2.01,-0.62 h -15.369 c -1.232,0 -2.117,0.274 -2.657,0.82 -0.54,0.546 -0.809,1.428 -0.809,2.646 v 20.988 c 0,0.812 0.121,1.476 0.362,1.99 0.241,0.514 0.618,0.888 1.133,1.124 0.515,0.234 1.171,0.351 1.971,0.351 h 14.931 c 0.902,0 1.572,-0.199 2.009,-0.599 0.439,-0.4 0.657,-0.924 0.657,-1.571 0,-0.661 -0.218,-1.191 -0.657,-1.59 -0.437,-0.401 -1.107,-0.6 -2.009,-0.6" /></g></g></g></svg>