<?xml version="1.0" encoding="utf-8"?>
<!-- Generator: Adobe Illustrator 28.2.0, SVG Export Plug-In . SVG Version: 6.00 Build 0)  -->
<svg version="1.1" id="Layer_1" xmlns="http://www.w3.org/2000/svg" xmlns:xlink="http://www.w3.org/1999/xlink" x="0px" y="0px"
	 viewBox="0 0 740.1 214.1" style="enable-background:new 0 0 740.1 214.1;" xml:space="preserve">
<style type="text/css">
	.st0{fill:#1D1D1B;}
</style>
<path class="st0" d="M264.7,133.5c3.2-0.1,8.3-0.4,11.1-0.4c15.5,0,20.8,8.1,20.8,16.9c0,9.9-6.1,14.6-18.2,14.6h-13.8L264.7,133.5
	L264.7,133.5z M254.2,197.7c0,8-2,10.4-12.4,10.4h-2.9v2.4h46.2c20.3,0,27.3-14,27.3-24s-6.9-17.6-18.8-21.1v-0.2
	c8.5-1.5,14.4-8.2,14.4-15.4c0-6.1-2.5-10.4-7.7-14c-4.5-3.3-14.3-4.9-25.4-4.9c-2.4,0-12,0.1-18.9,0.4c-3.7,0.1-12.4,0.6-15.9,0.8
	v2.4h4.4c8.8,0,9.7,3.8,9.7,11L254.2,197.7L254.2,197.7z M264.7,167.1h13.6c14.8,0,22.2,10,22.2,19.7s-4.8,20.2-21.5,20.2
	c-10.6,0-14.4-3.4-14.4-13L264.7,167.1L264.7,167.1z"/>
<path class="st0" d="M440.3,134.3v-2.4h-30.7v2.4c7.1,0.4,9.5,2.3,9.5,9.1v53.8c0,8.2-1.6,10.3-8.8,10.8
	c-9.6-0.5-13.7-4.3-20.6-11.2l-10-10c-5.9-5.9-9.7-9.5-14.4-13.1c10.4-3,16.8-11,16.8-20.5c0-12.9-10.5-22.5-33.8-22.5
	c-8.2,0-10.7,0.1-15.9,0.4c-5.2,0.2-12.9,0.8-15.9,0.8v2.4h2.8c7.3,0,9.5,2.3,9.5,10.1v53.2c0,8.5-2.6,10.5-10.1,10.5h-2.1v2.4h35.7
	V208h-2.9c-7.1,0-10.1-1.9-10.1-9.5v-21.3c2,0.1,3.7,0.3,6.4,0.3c3.4,0,5.4-0.1,8.6-0.3c3,2,7.5,5.7,13,11.2l8.3,8.3
	c10.9,10.9,15.6,14.4,36.1,13.6h28.6V208c-8.7,0-10.7-2.5-10.7-10v-53.5C429.6,136,432.4,134.3,440.3,134.3L440.3,134.3z M347,175.1
	c-2.9,0-4.8,0.1-7.8-0.2v-41.4c2.3-0.2,3.9-0.2,6.3-0.2c19.5,0,24.8,9.1,24.8,20.8C370.3,169.1,361.1,175.1,347,175.1L347,175.1z"/>
<path class="st0" d="M448.9,191.2c2.7,11.2,11.5,17.8,21.3,17.8c8.5,0,17.4-4.9,17.4-14.9c0-18.2-40.5-23.7-40.5-45.8
	c0-10.5,9.6-18.3,22.5-18.3c10.6,0,12.8,3.2,17.2,3.2c1,0,1.5-0.2,2.3-1.3h2l2.1,16h-2.1c-3.5-9.1-11.6-14.9-20.3-14.9
	s-14.1,4.8-14.1,11.9c0,17.9,40.5,22.7,40.5,46c0,12.4-11,21.6-25.8,21.6c-7,0-15.8-3.4-17.5-3.4c-1.1,0-2,0.6-2.5,1.4h-2.1
	l-2.6-19.2L448.9,191.2L448.9,191.2z"/>
<path class="st0" d="M545.8,198.8c0,6.8,2.3,9.2,10,9.2h4.7v2.4h-39.8V208h4.7c7.7,0,10-2.4,10-9.2v-62.4h-22c-5,0-7.3,2.9-9.2,14
	h-2.3l2-20.5h2.4c0.1,0.8,0.6,1.3,1.4,1.5c0.8,0.3,1.6,0.4,2.5,0.4h60.7c1.8,0,3.7-0.4,3.9-1.9h2.4l2,20.5H577
	c-1.9-11.1-4.2-14-9.2-14h-22L545.8,198.8L545.8,198.8z"/>
<path class="st0" d="M659.8,173.2c0,17.9-9.8,36.1-30.4,36.1S593,192.6,593,169c0-15.2,8.8-35.9,31.1-35.9
	C644.9,133.1,659.8,149.7,659.8,173.2L659.8,173.2z M671.7,169c0-22.7-20.5-39-44.3-39c-26.9,0-46.2,17.8-46.2,42.9
	c0,23.6,20.8,39.5,45.6,39.5S671.7,194.5,671.7,169L671.7,169z"/>
<path class="st0" d="M730.4,210.4h-56.4V208h4.2c5.8,0,8-1.9,8-8.3v-55.9c0-6.7-2-9.5-10-9.5h-1.8v-2.4h37.2v2.4h-4.7
	c-8.2,0-10.3,0.9-10.3,8.7v58.2c0,3.4,1.4,4.7,5,4.7h18.6c7.5,0,9.7-2.9,17.7-13.9h2.3L730.4,210.4L730.4,210.4z"/>
<path d="M140.5,95.8c-0.1-7.3-2.6-22.4-20.2-30.9c17.9,5.7,26.4,20.8,27.3,32c18.8,3.7,35.4,12.6,62.4,3.2l0.1-0.1
	c0,0-35.5,0.3-50.4-10.4c7.7,0.3,16.5-1.4,19.4-5.8c3.1-4.6,3.4-9.4,11-9.7c4.3-0.1,18.8,0.9,20.3-20.3c-4.6,7.8-9.7,11.1-17.2,9.1
	c-4.8-1.2-13.7-4.9-20,2.6c-5.2,6.2-10.8,9.5-19.8,8.5c3.6-4.8,56.8-74,56.8-74s-68.2,54.8-72,57.9c-0.7-10,2.3-13.7,6.3-18.1
	c3.3-3.6,9-8.5,4.4-18.7C145.3,13,145.8,8,155.8,0c-8,0.6-20.1,5.9-18.7,20.6c0.9,8.8-5.4,9.6-7.7,10.9c-5.9,3.3-6.7,12.8-6.9,20.3
	c-0.7-2.4-9.3-39.6-12.4-51.6v100h0.2C122,95.5,131.6,94.8,140.5,95.8L140.5,95.8z"/>
<path d="M210,110.4c-45.1,14.8-60.4-16.5-99.8,0c0,0,0,100.1,0,100.1c42.9-15.9,44.5,13.5,99.8,0C210,210.5,210,110.4,210,110.4z
	 M128.3,161.6c-0.2,0.1-0.3,0.3-0.4,0.5c-0.4,0.9-1.7,5.4-2,6.6c-0.3,1.2-0.7,1.4-1.4,1.7c-0.6,0.2-0.7,1.6-0.1,1.7
	c1.6,0.5,1.3,1.6,1.2,1.8c0,0.3-0.6,3.2-2.6,5.2c-1.1-2.1-1.3-4.1-1.5-4.6c-0.2-0.5-0.3-1.1-0.2-1.6c0.1-0.5-0.1-2.6-0.2-3.1
	s0.2-1,0.4-1.4c0.4-0.8,3.2-6,4.5-9.3c0.5-1.2,3.3-2.4,3.9-2.1c0.8,0.3,1.7,1.4,5.7,3.1c0.1,1.1,0.3,3.3,0.9,4.2
	c-0.9,0.4-2.4,0.5-2.4,0.5s-3.4-2.7-4-3.4c-0.1-0.1-0.4-0.3-0.6-0.3C129.1,161.3,128.6,161.5,128.3,161.6L128.3,161.6z M166.2,194.1
	c-0.7-0.6-1.8,0.4-1.2,1.3c0.7,1.1,0.6,1.7,0.6,1.7s-2.2,2.6-5.2,3c-0.3-0.3,0.8-4.3,1.9-6.5c0.9-1.8,1.3-2.1,2.5-2.7
	s6.2-3.1,7.8-4.4c1.6-1.3,2.2-3.2,2.2-3.2s1.5,1.9,3.4,3.8c-0.4,0.7-9.9,6.7-10.4,7.1C167.5,194.6,166.8,194.6,166.2,194.1
	L166.2,194.1z M188,189.1c-0.4,0.6-4.6,7.9-5.7,10.4c-0.6,1.4-1.2,1.1-1.6,1.2s-1.5,0.3-1.4,1.6c0.1,0.9-0.1,1.3-0.1,1.3h-7.3
	c0.3-1.1,1-2.4,3.9-3.9c0.9-0.5,2-1.5,2.8-2.7c0.4-0.6,2.9-5.1,3.4-6.2c0.4-0.8,0.2-2.1-0.2-2.9c-0.4-0.7-1.1-2-2.1-2.8
	c-3.2-2.6-5.2-4.6-7.9-9.9c-0.4-0.9,0.1-1.9-4.6-0.6c-11.2,3-19.4-1.1-19.8-1.4c0.4-2.1,1.2-4,0-4.9c-0.7,1.4-1.4,2.4-2.6,3.7
	c-0.4,0.4-0.9,0.3-1.7,0.2c-0.9-0.1-6.5-0.8-7.5-1.1c-0.4-0.1-2,0.4-1.1,2.2c0.2,0.3,1.4,2.6,2.8,4.6c0.7,1.1,0,1.8,0.1,2.6
	c0.2,0.8,0.6,1.1,0.9,1c0.3-0.1,1.5-1.5,2.4-0.5c0.9,1,1.6,3.9,1.7,6.8c-0.8,0.1-1.9-0.3-2.9-1.1c-0.9-0.7-1.8-2.1-2.8-2.9
	c-1-0.8-1.5-0.7-2.2-1.4c-0.6-0.6-1.3-1-1.5-2.8s-2.9-7.7-3.3-8.4c-0.6-0.9,0.5-2.8,1-3.4c0.4-0.5,1.3-0.6,2.4-0.8
	c1.6-0.4,4.2-1.5,5.1-1.8c-3.5-6.6,0.7-10.7,1.2-11c1.2-5.8,3.4-8.9,4.3-10.1c2.1-0.4,4.1-0.7,5.1-4.9c0.6-2.4-0.5-4.9-1.3-5.6
	c0.4,2.2,0.3,4.6-0.9,6.3c-1.7,2.5-4.5,2.2-5.1,2.2s-1.1-0.1-1.6,0.4c-0.4,0.4-1.7,1.6-2.5,2.1c-0.7,0.4-0.6,0.7-0.6,1.3
	c-0.1,0.6-0.1,1-0.8,1.1c-0.7,0.1-1.7-0.4-2.3-0.4c-1,0-0.4-0.6,0.2-1.4c0.6-0.8,0.7-0.3,1.2-0.4c0.6-0.1,1.1-0.4,1.6-1.1
	c0.8-1.2-1.1-1.4-1.7-0.8c-0.6,0.6-1.4,1.7-1.9,2.3s-1,0.8-1.2,0.1c-0.2-0.5-0.4-1.5-0.4-2c-1.6-0.4-0.2-2.2-0.2-2.2l4.7-5.7
	c0,0-1.1-0.7-0.3-1.9c0.4-0.6,3.2-4,5.2-5.4c-0.4-1.1-0.9-2.2-2.1-3.4c1.8,0.3,3.2,0.2,6,3.2c0.7,0.7,1.5,0.5,1.2-0.2
	c-0.3-0.8-0.8-1.4-1.7-2.6c8.7-2.3,12.9,5.4,13.5,6.2c-1.6-0.1-2.9,0.1-3.7,0.4c-0.7,0.2-0.6,0.5,0.4,0.6c2.9,0.3,3.3,0.5,4.2,0.7
	c1.2,1.4,1.9,4.8,1.8,4.9c-1.2,0.1-2.8-0.2-4.4,0.1c-1.3,0.2-0.9,0.8-0.3,0.8c1.9,0.2,3.8,0.8,5.2,1.4c0.5,2.7,0.4,4.5,0.4,4.5
	s-3.4-0.4-4.3-0.3s-0.4,0.8,0.4,1.1c0.8,0.3,2.5,0.9,3.6,1.9c0,0.8-0.3,2.7-0.7,3.7c-0.3,0.9-0.1,1.8,1.5,2.1
	c4.2,0.8,7.8,1.4,14.3,1.3c11.4-0.2,15.2,12.9,10.1,19.3c-2.4,3-2.5,4.7-2.3,5.8c0.5,2.7,1.9,5.1,4.4,6.5
	C189.7,186.6,188.4,188.4,188,189.1L188,189.1z M200.7,140.7c-3.4,2.9,0.2,8.4-3,12.7c-1.7,2.9-6.6,5.9-11.3,3c2.8-1,5.6-3.3,4-7.8
	c-2-5.7-4.7-5.8-7.8-10.6c-2.4-3.7-3.7-13.3,5.2-16.4c-7.3,4.6-3,12.9-0.3,15.3c-4.7-10.8,2.6-15.9,7-15.9c2.4,0,5.4,0.2,7.1,3.4
	c2.5,4.5-1.2,7.9-3.1,8c3.1-1.4,2.9-4.3,1.9-5.8c-1.9-2.7-7.1-1.4-8,1.8c-1.4,4.9,2.5,7.7,3.8,10.9c1.9-2.8,6.8-3.1,8.9-0.1
	C203.1,139.4,201.6,140,200.7,140.7L200.7,140.7z"/>
<path d="M125.4,174C125.4,174,125.5,174,125.4,174C125.5,173.9,125.5,173.9,125.4,174z"/>
<path class="st0" d="M310.2,41.8v1.8c-6.3,0.1-8.5,2.6-8.5,8.6v25.3c0,11.6-7.4,24.1-27.7,24.1c-17.9,0-27.1-10.2-27.1-23.6V50.6
	c0-6-1.7-6.9-8.1-7v-1.8h24.1v1.8h-0.8c-5.1,0-7.4,1.4-7.4,6.8v26c0,12.6,7.4,20.2,21.4,20.2c10.6,0,21.4-4.4,21.4-20.3V54.6
	c0-9-1.4-10.6-9.2-11v-1.8L310.2,41.8L310.2,41.8z"/>
<path class="st0" d="M322.5,91.9c0,5.2,1.2,6.4,6.3,6.4v1.8h-18.8v-1.8c4.1,0,6.3-2.2,6.3-5.9V72.7c0-3.5-0.4-4.1-2.8-4.6l-3.2-0.7
	V66l10.8-3.9h1.5v7.3c6.3-3.9,11.5-7.4,16.1-7.4c6.4,0,10,4.7,10,14.1c0,12.4-0.6,14.9-0.8,18.5c-0.1,2.5,1.4,3.8,5.2,3.8h2.1v1.8
	H335v-1.8c2.7-0.1,4.3-0.8,5.3-1.8c1.8-1.8,2-8.6,2-21.1c0-7.5-3.6-9.8-7.4-9.8c-3,0-7.6,2.6-12.5,6L322.5,91.9L322.5,91.9z"/>
<path class="st0" d="M373.1,92.9c0,3.3,1.8,5.3,6.7,5.3v1.8H359v-1.8c5.7,0,7.8-1.9,7.8-6.8V72.6c0-3.7-0.5-4.1-2.9-4.6l-4.4-0.8
	v-1.5l12.2-4.2h1.4V92.9z M369.2,40.4c2.2,0,4.1,1.6,4.1,3.6s-1.9,3.6-4.1,3.6s-4-1.6-4-3.6S367,40.4,369.2,40.4z"/>
<path class="st0" d="M401.2,100.9l-13.6-31.1c-1.4-3.3-2.6-4.4-4.1-4.7l-2.9-0.5V63h19.1v1.7c-5.7,0.2-7.5,0.9-5.2,5.3l9.9,23.3
	l9.5-21.6c1.7-3.8,0.8-6.6-6-7V63h16.3v1.7c-3.5,0.7-5.6,2.7-7.4,6.8l-12.9,29.4L401.2,100.9L401.2,100.9z"/>
<path class="st0" d="M432.1,73.8c2.2-8.7,6.8-10.1,9.9-10.1c4.5,0,8.2,4,9.3,10.1H432.1L432.1,73.8z M459.2,76.3v-2.2
	C456.1,71,456.4,62,443.7,62c-11.4,0-18.1,10.1-18.1,20c0,10.9,7.1,19.2,16.3,19.2c6.8,0,12.7-4.7,16.7-9.6l-1-1.1
	c-3.6,4.2-7.2,6.1-11.9,6.1c-7.4,0-14.2-6.6-14.2-16.3c0-1.2,0.2-2.5,0.4-3.9L459.2,76.3L459.2,76.3z"/>
<path class="st0" d="M477.2,93.2c0,3.8,1.4,5.1,6.1,5.1h3.6v1.8h-22.2v-1.8c4.8-0.1,6.3-2.1,6.3-7V69.6l-6.3-2.2v-1.6l10.7-3.8h1.9
	V72h0.2c4.7-7.7,5.8-9.5,8.9-9.5c1.1,0,1.4,0.1,3.2,0.8c0.9,0.4,2.6,0.8,4.9,1.4l-2.2,5.6c-1.4-0.2-3.2-0.7-5-1.5
	c-1-0.5-2.1-0.9-3.3-0.9c-1.7,0-2.7,1.1-3.6,2.4c-1.2,1.7-2.2,3.3-3,4.7V93.2L477.2,93.2z"/>
<path class="st0" d="M500.8,90.6c1.1,5.6,4.7,8.8,8.9,8.8c3.7,0,6.6-2.8,6.6-6.2c0-2-0.5-3.2-3-5.7c-6.6-6.7-14-7.3-14-15.1
	c0-6.2,4.9-10.5,12-10.5c2.5,0,5.1,0.6,7.5,1.5L519,72h-1.6c-0.7-4.8-3.8-7.8-7.5-7.8c-3.1,0-5.7,2.2-5.7,5.2
	c0,8.2,17.4,9.6,17.4,21.1c0,6.1-5,10.7-11.6,10.7c-1.8,0-3.1-0.3-4.1-0.7c-1-0.3-1.8-0.6-2.5-0.6c-0.6,0-1.1,0.4-1.6,1.1h-1.4
	l-1-10.5L500.8,90.6L500.8,90.6z"/>
<path class="st0" d="M541.4,92.9c0,3.3,1.8,5.3,6.7,5.3v1.8h-20.8v-1.8c5.7,0,7.8-1.9,7.8-6.8V72.6c0-3.7-0.5-4.1-2.9-4.6l-4.4-0.8
	v-1.5l12.2-4.2h1.4L541.4,92.9L541.4,92.9z M537.5,40.4c2.2,0,4.1,1.6,4.1,3.6s-1.9,3.6-4.1,3.6s-4-1.6-4-3.6S535.3,40.4,537.5,40.4
	z"/>
<path class="st0" d="M574.8,63l-1.5,4.1h-11.9v21.8c0,5.9,4.2,7.9,6.2,7.9s3.9-1.6,5.7-4.7l1.5,1.4c-2.2,4.9-5.9,7.7-10.2,7.7
	c-5.5,0-9.5-4.6-9.5-10.9V67.1h-4.3v-1.5c3.7-1.8,6.8-6.1,9-11.9h1.6V63H574.8L574.8,63z"/>
<path class="st0" d="M611.8,73.4c2.8-7.1,1-8.5-4.5-8.7V63h15.5v1.7c-3.8,0.5-6,3.1-7.8,7.5l-15.9,39.7c-2.8,6.9-5,10-8.2,10
	c-2.2,0-3.8-1.4-3.8-3.3c0-3.8,5.4-2.9,7.8-5.2c1-1,2.4-3.5,3.2-5.3l2.8-7l-14.5-30.8c-1.8-3.8-3.5-5.4-7.4-5.5V63h18.8v1.7
	c-5.7,0.1-6.4,1.8-4.5,5.7l10.6,22.8L611.8,73.4L611.8,73.4z"/>
<path class="st0" d="M650.9,78.6c0-8.1,5.7-14.4,11.9-14.4c7.9,0,14.4,9.1,14.4,19.8c0,9.4-6.3,15-11.8,15
	C657.4,98.9,650.9,89.9,650.9,78.6z M643.9,81.8c0,11,8.9,19.4,20.5,19.4s19.8-8.5,19.8-19.6s-8.7-19.7-20.1-19.7
	C654.4,61.9,643.9,68.9,643.9,81.8z"/>
<path class="st0" d="M711.4,67.1h-10.1v25.7c0,4.3,1.7,5.5,6.9,5.5h3.6v1.8h-23.1v-1.8c5.4,0,6.4-1.2,6.4-6.5V67.1h-6.9v-1.6
	c2.6-0.6,4.9-1.4,6.9-2.5c0-7.8,1.7-13.7,7.2-19.2c4.6-4.6,9-6.7,13.3-6.7c5.2,0,9.7,3,9.7,4.4c0,0.8-1.8,4.5-2.5,4.5
	c-1.3,0-4.8-4.6-11-4.6c-6.7,0-10.4,5.3-10.4,14.4V63h9.5L711.4,67.1L711.4,67.1z"/>
<path d="M79.3,0.1v10.8H67.2h-0.5V0.1H55.1v10.8H43.5V0.1H32.1v10.8h-0.4H20.4V0.1H0c0,0,0,100.4,0,100c42.8,14.9,59.6-15.8,99.8,0
	V0.1H79.3z M77.2,33.7c-4.1,8.1-4.4,16.3-3.7,20.5c-8.6-2.2-11.5,0-11.5,0S62.2,45,77.2,33.7z M35.3,23.7c3.4-1.4,3.3-0.6,3.1,0.3
	s-0.8,2.6,1.1,2.2c5.2-1.2,9.8-4.4,10.2-4.7v6.3c-0.8,0.4-6.2,2.8-10.9,3.1c-4.3,0.3-2.4-4.6-2.4-4.6c-0.4,0.2-5.9,3.1-10.5,2.9
	c-5.5-0.3-5.8-3.4-5.2-4.1C20.6,25.6,21.4,29.5,35.3,23.7L35.3,23.7z M17.7,88.8c18.4,5.1,31.1-8.3,43.7-10
	c-13.7-0.2-21.1,5.5-25.6,6c-2.3-1.7-4.9-5.9-5.8-10.4c-0.7-3.8-4.5-4.4-4.5-4.4L24.9,67c0,0,10.8,1.6,12.7,1.8c2.5,4,7.2,5,9.6,5
	c0,0,0.1-6.8,0-7.2c0.5-0.8,2.5-1.4,2.5-1.4l0.1,8.5c5.9,0,10.4-3.8,10.3-7.3c-0.1-4.1-4.6-7.6-11.8-7.4c-7.2,0.1-9.8,3.7-10.5,4.9
	c-8.5-8.5-4.6-18.9-4.6-18.9s-7.4,5-0.7,17.6c-7-1.9-12.8,1.8-12.6,4.7c0,2.7,2.1,4.8,6.3,4.9c-15.1,3-18.4-5.6-11.2-10.2
	c2.3,0.4,4.2,0.7,5.7,1.1c-7.3-7.3-3.8-16.3,2.1-20.2c8.5-1.5,12.8-2.2,12.8-2.2s4.1-5.9,7.7-8.1c5.2-0.5,23.4-3.1,23.4-3.1
	s-17,15.5-0.7,32c6.7,0,14.7,0,14.7,0s-0.3,2.5-0.8,4.9c-1.4,0.1-2.2,0.2-2.8,0.2C76.8,74.1,72.2,79,72.2,79s8.5,1.1,14.2,4.5
	C49.9,76.6,46.9,98.7,17.7,88.8L17.7,88.8z"/>
<path d="M138.2,136.1c0,0-0.5-0.2,0.4-1c0.1-0.1,0.3,0.1,0.8,0.1c0.7,0,1.1-0.2,1.7-0.9c0.9-1.1-1-1.5-1.6-1
	c-0.7,0.6-1.1,1.1-1.7,1.7C137.8,135,136.9,135.8,138.2,136.1L138.2,136.1z"/>
<path d="M99.8,207.1C68,186.2,43.5,217.7,0,195.9v14.6c55.3,13.5,56.9-15.9,99.8,0V207.1z"/>
<path d="M44.7,187.7C17.1,187.9,0,171.2,0,171.2v13.1c39.7,27.1,65.6-3.6,99.8,19.5v-3.5C91.6,193.8,81,187.4,44.7,187.7L44.7,187.7
	z"/>
<path d="M70.2,183.8c3.7,0.8,6.9,1.6,9.7,2.4c7.2,2.4,13.9,6,19.9,10.5v-86.3c-10.5-4.4-19.3-5.4-27.4-4.8V152l-10.8-10.8L50.8,152
	V110c-14,3.8-28.9,7.5-50.8,0.3c0,0.9,0,23.6,0,43.3c0,0,11.4,24.2,42.2,26.5C53.9,181.1,63,182.4,70.2,183.8"/>
</svg>
