<?xml version="1.0" encoding="UTF-8" standalone="no"?>
<svg
   xmlns:dc="http://purl.org/dc/elements/1.1/"
   xmlns:cc="http://creativecommons.org/ns#"
   xmlns:rdf="http://www.w3.org/1999/02/22-rdf-syntax-ns#"
   xmlns:svg="http://www.w3.org/2000/svg"
   xmlns="http://www.w3.org/2000/svg"
   viewBox="0 0 320 93.333336"
   height="93.333336"
   width="320"
   xml:space="preserve"
   id="svg2"
   version="1.1"><metadata
     id="metadata8"><rdf:RDF><cc:Work
         rdf:about=""><dc:format>image/svg+xml</dc:format><dc:type
           rdf:resource="http://purl.org/dc/dcmitype/StillImage" /></cc:Work></rdf:RDF></metadata><defs
     id="defs6"><clipPath
       id="clipPath18"
       clipPathUnits="userSpaceOnUse"><path
         id="path16"
         d="M 0,70 H 240 V 0 H 0 Z" /></clipPath><clipPath
       id="clipPath26"
       clipPathUnits="userSpaceOnUse"><path
         style="clip-rule:evenodd"
         id="path24"
         d="M -204,-374.92 H 391.32 V 467 H -204 Z" /></clipPath><clipPath
       id="clipPath34"
       clipPathUnits="userSpaceOnUse"><path
         style="clip-rule:evenodd"
         id="path32"
         d="M -66,-657.92 H 529.32 V 184 H -66 Z" /></clipPath><clipPath
       id="clipPath42"
       clipPathUnits="userSpaceOnUse"><path
         style="clip-rule:evenodd"
         id="path40"
         d="M -66,-657.92 H 529.32 V 184 H -66 Z" /></clipPath><clipPath
       id="clipPath50"
       clipPathUnits="userSpaceOnUse"><path
         style="clip-rule:evenodd"
         id="path48"
         d="M -66,-657.92 H 529.32 V 184 H -66 Z" /></clipPath><clipPath
       id="clipPath58"
       clipPathUnits="userSpaceOnUse"><path
         style="clip-rule:evenodd"
         id="path56"
         d="M -66,-657.92 H 529.32 V 184 H -66 Z" /></clipPath><clipPath
       id="clipPath78"
       clipPathUnits="userSpaceOnUse"><path
         style="clip-rule:evenodd"
         id="path76"
         d="M -66,-657.92 H 529.32 V 184 H -66 Z" /></clipPath><clipPath
       id="clipPath90"
       clipPathUnits="userSpaceOnUse"><path
         style="clip-rule:evenodd"
         id="path88"
         d="M -66,-657.92 H 529.32 V 184 H -66 Z" /></clipPath><clipPath
       id="clipPath114"
       clipPathUnits="userSpaceOnUse"><path
         style="clip-rule:evenodd"
         id="path112"
         d="M -66,-657.92 H 529.32 V 184 H -66 Z" /></clipPath><clipPath
       id="clipPath122"
       clipPathUnits="userSpaceOnUse"><path
         style="clip-rule:evenodd"
         id="path120"
         d="M -66,-657.92 H 529.32 V 184 H -66 Z" /></clipPath><clipPath
       id="clipPath142"
       clipPathUnits="userSpaceOnUse"><path
         style="clip-rule:evenodd"
         id="path140"
         d="M -66,-657.92 H 529.32 V 184 H -66 Z" /></clipPath><clipPath
       id="clipPath150"
       clipPathUnits="userSpaceOnUse"><path
         style="clip-rule:evenodd"
         id="path148"
         d="M -66,-657.92 H 529.32 V 184 H -66 Z" /></clipPath></defs><g
     transform="matrix(1.3333333,0,0,-1.3333333,0,93.333333)"
     id="g10"><g
       id="g12"><g
         clip-path="url(#clipPath18)"
         id="g14"><g
           id="g20"><g
             clip-path="url(#clipPath26)"
             id="g22" /></g><g
           id="g28"><g
             clip-path="url(#clipPath34)"
             id="g30" /></g><g
           id="g36"><g
             clip-path="url(#clipPath42)"
             id="g38" /></g><g
           id="g44"><g
             clip-path="url(#clipPath50)"
             id="g46" /></g><g
           id="g52"><g
             clip-path="url(#clipPath58)"
             id="g54"><text
               id="text62"
               style="font-variant:normal;font-weight:normal;font-stretch:normal;font-size:18.95999908px;font-family:Calibri;-inkscape-font-specification:Calibri;writing-mode:lr-tb;fill:#000000;fill-opacity:1;fill-rule:nonzero;stroke:none"
               transform="matrix(1,0,0,-1,6.0239,3.8604)"><tspan
                 id="tspan60"
                 y="0"
                 x="0 10.75032 15.09216 22.50552">Visu</tspan></text>
<text
               id="text66"
               style="font-variant:normal;font-weight:normal;font-stretch:normal;font-size:18.95999908px;font-family:Calibri;-inkscape-font-specification:Calibri;writing-mode:lr-tb;fill:#000000;fill-opacity:1;fill-rule:nonzero;stroke:none"
               transform="matrix(1,0,0,-1,38.5093,3.8604)"><tspan
                 id="tspan64"
                 y="0"
                 x="0">a</tspan></text>
<text
               id="text70"
               style="font-variant:normal;font-weight:normal;font-stretch:normal;font-size:18.95999908px;font-family:Calibri;-inkscape-font-specification:Calibri;writing-mode:lr-tb;fill:#000000;fill-opacity:1;fill-rule:nonzero;stroke:none"
               transform="matrix(1,0,0,-1,47.6479,3.8604)"><tspan
                 id="tspan68"
                 y="0"
                 x="0 4.3418398">l </tspan></text>
</g></g><g
           id="g72"><g
             clip-path="url(#clipPath78)"
             id="g74"><text
               id="text82"
               style="font-variant:normal;font-weight:normal;font-stretch:normal;font-size:18.95999908px;font-family:Calibri;-inkscape-font-specification:Calibri;writing-mode:lr-tb;fill:#000000;fill-opacity:1;fill-rule:nonzero;stroke:none"
               transform="matrix(1,0,0,-1,56.2998,3.8604)"><tspan
                 id="tspan80"
                 y="0"
                 x="0">I</tspan></text>
</g></g><g
           id="g84"><g
             clip-path="url(#clipPath90)"
             id="g86"><text
               id="text94"
               style="font-variant:normal;font-weight:normal;font-stretch:normal;font-size:18.95999908px;font-family:Calibri;-inkscape-font-specification:Calibri;writing-mode:lr-tb;fill:#000000;fill-opacity:1;fill-rule:nonzero;stroke:none"
               transform="matrix(1,0,0,-1,61.1001,3.8604)"><tspan
                 id="tspan92"
                 y="0"
                 x="0 9.9540005 15.7368 25.72872 32.34576">nform</tspan></text>
<text
               id="text98"
               style="font-variant:normal;font-weight:normal;font-stretch:normal;font-size:18.95999908px;font-family:Calibri;-inkscape-font-specification:Calibri;writing-mode:lr-tb;fill:#000000;fill-opacity:1;fill-rule:nonzero;stroke:none"
               transform="matrix(1,0,0,-1,108.6021,3.8604)"><tspan
                 id="tspan96"
                 y="0"
                 x="0">a</tspan></text>
<text
               id="text102"
               style="font-variant:normal;font-weight:normal;font-stretch:normal;font-size:18.95999908px;font-family:Calibri;-inkscape-font-specification:Calibri;writing-mode:lr-tb;fill:#000000;fill-opacity:1;fill-rule:nonzero;stroke:none"
               transform="matrix(1,0,0,-1,117.7031,3.8604)"><tspan
                 id="tspan100"
                 y="0"
                 x="0">t</tspan></text>
<text
               id="text106"
               style="font-variant:normal;font-weight:normal;font-stretch:normal;font-size:18.95999908px;font-family:Calibri;-inkscape-font-specification:Calibri;writing-mode:lr-tb;fill:#000000;fill-opacity:1;fill-rule:nonzero;stroke:none"
               transform="matrix(1,0,0,-1,128.2661,3.8604)"><tspan
                 id="tspan104"
                 y="0"
                 x="0 9.9919205">on</tspan></text>
</g></g><g
           id="g108"><g
             clip-path="url(#clipPath114)"
             id="g110" /></g><g
           id="g116"><g
             clip-path="url(#clipPath122)"
             id="g118"><text
               id="text126"
               style="font-variant:normal;font-weight:normal;font-stretch:normal;font-size:18.95999908px;font-family:Calibri;-inkscape-font-specification:Calibri;writing-mode:lr-tb;fill:#000000;fill-opacity:1;fill-rule:nonzero;stroke:none"
               transform="matrix(1,0,0,-1,152.8101,3.8604)"><tspan
                 id="tspan124"
                 y="0"
                 x="0 7.9632001">La</tspan></text>
<text
               id="text130"
               style="font-variant:normal;font-weight:normal;font-stretch:normal;font-size:18.95999908px;font-family:Calibri;-inkscape-font-specification:Calibri;writing-mode:lr-tb;fill:#000000;fill-opacity:1;fill-rule:nonzero;stroke:none"
               transform="matrix(1,0,0,-1,169.8633,3.8604)"><tspan
                 id="tspan128"
                 y="0"
                 x="0">b</tspan></text>
<text
               id="text134"
               style="font-variant:normal;font-weight:normal;font-stretch:normal;font-size:18.95999908px;font-family:Calibri;-inkscape-font-specification:Calibri;writing-mode:lr-tb;fill:#000000;fill-opacity:1;fill-rule:nonzero;stroke:none"
               transform="matrix(1,0,0,-1,179.9004,3.8604)"><tspan
                 id="tspan132"
                 y="0"
                 x="0 9.9919205 16.608959 25.6908 32.0424 42.034321 48.65136">oratory</tspan></text>
</g></g><g
           id="g136"><g
             clip-path="url(#clipPath142)"
             id="g138" /></g><g
           id="g144"><g
             clip-path="url(#clipPath150)"
             id="g146" /></g><path
           id="path152"
           style="fill:#444444;fill-opacity:1;fill-rule:evenodd;stroke:none"
           d="m 9.342,56.89 h 5.643 l 6.521,-19.07 6.311,19.07 h 5.52 L 24.108,31.12 h -5.555 z" /><path
           id="path154"
           style="fill:none;stroke:#444444;stroke-width:1.5;stroke-linecap:butt;stroke-linejoin:round;stroke-miterlimit:10;stroke-dasharray:none;stroke-opacity:1"
           d="m 9.342,56.89 h 5.643 l 6.521,-19.07 6.311,19.07 h 5.52 L 24.108,31.12 h -5.555 z" /><path
           id="path156"
           style="fill:#717171;fill-opacity:1;fill-rule:evenodd;stroke:none"
           d="m 37.5,31.12 h 5.203 V 56.89 H 37.5 Z" /><path
           id="path158"
           style="fill:none;stroke:#717171;stroke-width:1.5;stroke-linecap:butt;stroke-linejoin:round;stroke-miterlimit:10;stroke-dasharray:none;stroke-opacity:1"
           d="m 37.5,31.12 h 5.203 V 56.89 H 37.5 Z" /><path
           id="path160"
           style="fill:#000000;fill-opacity:1;fill-rule:evenodd;stroke:none"
           d="m 49.2,56.68 h 5.2 V 35.46 H 67.34 V 31.12 H 49.2 Z" /><path
           id="path162"
           style="fill:none;stroke:#000000;stroke-width:1.5;stroke-linecap:butt;stroke-linejoin:round;stroke-miterlimit:10;stroke-dasharray:none;stroke-opacity:1"
           d="m 49.2,56.68 h 5.2 V 35.46 H 67.34 V 31.12 H 49.2 Z" /><path
           id="path164"
           style="fill:#000000;fill-opacity:1;fill-rule:evenodd;stroke:none"
           d="m 83.56,40.08 c -0.63,-0.21 -1.63,-0.46 -3,-0.75 C 79.19,39.04 78.29,38.75 77.87,38.471 77.22,38.01 76.9,37.43 76.9,36.73 c 0,-0.69 0.26,-1.291 0.78,-1.8 0.51,-0.5 1.17,-0.75 1.96,-0.75 0.9,0 1.75,0.291 2.55,0.881 0.6,0.439 0.99,0.989 1.18,1.628 0.13,0.421 0.19,1.231 0.19,2.411 z m -3,10.13 c 2.2,0 3.84,-0.26 4.92,-0.78 1.08,-0.52 1.84,-1.19 2.28,-1.99 0.44,-0.8 0.66,-2.28 0.66,-4.42 l -0.06,-5.77 c 0,-1.64 0.08,-2.85 0.24,-3.63 0.16,-0.77 0.45,-1.61 0.89,-2.5 H 84.6 c -0.13,0.33 -0.29,0.81 -0.47,1.46 -0.08,0.29 -0.14,0.49 -0.18,0.58 C 83.11,32.34 82.21,31.721 81.24,31.311 80.28,30.9 79.26,30.7 78.17,30.7 c -1.92,0 -3.44,0.521 -4.55,1.56 -1.1,1.051 -1.66,2.36 -1.66,3.961 0,1.049 0.26,1.989 0.76,2.819 0.5,0.83 1.21,1.46 2.12,1.899 0.91,0.441 2.21,0.821 3.93,1.151 2.3,0.43 3.9,0.84 4.79,1.21 v 0.49 c 0,0.95 -0.23,1.63 -0.7,2.03 -0.47,0.41 -1.35,0.61 -2.65,0.61 -0.88,0 -1.57,-0.17 -2.06,-0.52 -0.49,-0.34 -0.89,-0.95 -1.19,-1.82 l -4.49,0.81 c 0.51,1.81 1.37,3.14 2.6,4.01 1.23,0.87 3.06,1.3 5.49,1.3" /><path
           id="path166"
           style="fill:none;stroke:#000000;stroke-width:1.5;stroke-linecap:butt;stroke-linejoin:round;stroke-miterlimit:10;stroke-dasharray:none;stroke-opacity:1"
           d="m 83.56,40.08 c -0.63,-0.21 -1.63,-0.46 -3,-0.75 C 79.19,39.04 78.29,38.75 77.87,38.471 77.22,38.01 76.9,37.43 76.9,36.73 c 0,-0.69 0.26,-1.291 0.78,-1.8 0.51,-0.5 1.17,-0.75 1.96,-0.75 0.9,0 1.75,0.291 2.55,0.881 0.6,0.439 0.99,0.989 1.18,1.628 0.13,0.421 0.19,1.231 0.19,2.411 z m -3,10.13 c 2.2,0 3.84,-0.26 4.92,-0.78 1.08,-0.52 1.84,-1.19 2.28,-1.99 0.44,-0.8 0.66,-2.28 0.66,-4.42 l -0.06,-5.77 c 0,-1.64 0.08,-2.85 0.24,-3.63 0.16,-0.77 0.45,-1.61 0.89,-2.5 H 84.6 c -0.13,0.33 -0.29,0.81 -0.47,1.46 -0.08,0.29 -0.14,0.49 -0.18,0.58 C 83.11,32.34 82.21,31.721 81.24,31.311 80.28,30.9 79.26,30.7 78.17,30.7 c -1.92,0 -3.44,0.521 -4.55,1.56 -1.1,1.051 -1.66,2.36 -1.66,3.961 0,1.049 0.26,1.989 0.76,2.819 0.5,0.83 1.21,1.46 2.12,1.899 0.91,0.441 2.21,0.821 3.93,1.151 2.3,0.43 3.9,0.84 4.79,1.21 v 0.49 c 0,0.95 -0.23,1.63 -0.7,2.03 -0.47,0.41 -1.35,0.61 -2.65,0.61 -0.88,0 -1.57,-0.17 -2.06,-0.52 -0.49,-0.34 -0.89,-0.95 -1.19,-1.82 l -4.49,0.81 c 0.51,1.81 1.37,3.14 2.6,4.01 1.23,0.87 3.06,1.3 5.49,1.3 z" /><path
           id="path168"
           style="fill:#000000;fill-opacity:1;fill-rule:evenodd;stroke:none"
           d="m 103.811,46.43 c -1.191,0 -2.17,-0.46 -2.952,-1.38 -0.789,-0.92 -1.179,-2.32 -1.179,-4.19 0,-1.94 0.3,-3.37 0.91,-4.29 0.86,-1.31 1.99,-1.97 3.41,-1.97 1.09,0 2.02,0.47 2.79,1.4 0.771,0.93 1.149,2.4 1.149,4.4 0,2.13 -0.389,3.67 -1.16,4.62 -0.769,0.94 -1.759,1.41 -2.968,1.41 M 94.77,56.89 h 4.94 v -9.28 c 1.53,1.73 3.33,2.6 5.42,2.6 2.27,0 4.149,-0.82 5.64,-2.47 1.49,-1.65 2.23,-4.01 2.23,-7.09 0,-3.19 -0.76,-5.65 -2.27,-7.37 -1.52,-1.719 -3.371,-2.58 -5.53,-2.58 -1.07,0 -2.12,0.26 -3.16,0.8 -1.04,0.53 -1.931,1.32 -2.681,2.36 V 31.12 H 94.77 Z" /><path
           id="path170"
           style="fill:none;stroke:#000000;stroke-width:1.5;stroke-linecap:butt;stroke-linejoin:round;stroke-miterlimit:10;stroke-dasharray:none;stroke-opacity:1"
           d="m 103.811,46.43 c -1.191,0 -2.17,-0.46 -2.952,-1.38 -0.789,-0.92 -1.179,-2.32 -1.179,-4.19 0,-1.94 0.3,-3.37 0.91,-4.29 0.86,-1.31 1.99,-1.97 3.41,-1.97 1.09,0 2.02,0.47 2.79,1.4 0.771,0.93 1.149,2.4 1.149,4.4 0,2.13 -0.389,3.67 -1.16,4.62 -0.769,0.94 -1.759,1.41 -2.968,1.41 z M 94.77,56.89 h 4.94 v -9.28 c 1.53,1.73 3.33,2.6 5.42,2.6 2.27,0 4.149,-0.82 5.64,-2.47 1.49,-1.65 2.23,-4.01 2.23,-7.09 0,-3.19 -0.76,-5.65 -2.27,-7.37 -1.52,-1.719 -3.371,-2.58 -5.53,-2.58 -1.07,0 -2.12,0.26 -3.16,0.8 -1.04,0.53 -1.931,1.32 -2.681,2.36 V 31.12 H 94.77 Z" /><path
           id="path172"
           style="fill:none;stroke:#2d2d2d;stroke-width:1;stroke-linecap:butt;stroke-linejoin:miter;stroke-miterlimit:8;stroke-dasharray:none;stroke-opacity:1"
           d="M 6.5,24.221 H 69.65 V 64.62 H 6.5 Z" /></g></g></g></svg>